<svg width="688" height="437" viewBox="0 0 688 437" fill="none" xmlns="http://www.w3.org/2000/svg">
<g clip-path="url(#clip0_405_6491)">
<path d="M412.832 247.168C412.87 247.077 412.881 246.921 412.945 246.895L426.529 232.736L424.523 232.436C422.544 232.201 420.624 231.563 418.882 230.626L411.569 233.885C411.505 233.912 411.44 233.938 411.349 233.9L409.563 233.585C409.408 233.574 409.29 233.472 409.211 233.278C409.158 233.15 409.233 232.967 409.335 232.85L415.693 228.553L413.712 227.036C413.296 226.756 413.019 226.267 413.052 225.8C413.048 225.425 413.108 225.023 413.285 224.723L408.761 219.96C408.643 219.858 408.628 219.638 408.73 219.52C408.741 219.365 408.934 219.285 409.089 219.296L414.134 219.844C414.198 219.818 414.225 219.882 414.316 219.92L419.636 223.145L420.331 219.537C420.38 219.291 420.573 219.211 420.792 219.195L422.333 219.462C422.488 219.473 422.605 219.575 422.659 219.704L424.016 224.272C426.396 224.567 429.269 224.96 432.296 225.364L437.635 214.398C437.737 214.281 437.839 214.163 437.995 214.174C439.273 214.172 440.293 215.183 440.359 216.438L440.57 221.33L443.768 221.965C444.105 222.052 444.457 222.358 444.708 222.783C444.867 223.169 444.925 223.673 444.918 224.204C444.82 224.698 444.658 225.217 444.352 225.571C444.212 225.78 443.982 225.951 443.789 226.031C443.596 226.111 443.377 226.126 443.221 226.115L440.735 225.562L440.759 226.533C444.032 226.986 446.905 227.379 448.729 227.603C450.735 227.903 452.67 228.761 454.105 230.051C454.602 230.525 455.098 230.998 455.466 231.524C455.978 232.217 456.104 233.071 455.738 233.826C455.538 234.437 455.104 234.843 454.525 235.083C454.332 235.163 454.139 235.243 453.92 235.259C452.41 235.432 450.848 235.477 449.413 235.468C447.888 235.421 446.364 235.375 444.914 235.146L436.724 234.091L431.326 237.612L432.775 237.841C433.177 237.901 433.529 238.208 433.715 238.659C433.874 239.045 433.932 239.549 433.925 240.08C433.832 240.949 433.348 241.602 432.77 241.842C432.577 241.922 432.357 241.938 432.202 241.927L426.581 240.712L416.042 247.648C415.913 247.701 415.747 247.845 415.618 247.899C414.782 248.245 413.761 248.141 412.992 247.554C412.848 247.388 412.794 247.259 412.832 247.168ZM410.603 233.003L411.341 233.15L420.171 229.186C419.342 229.002 418.047 228.784 416.87 228.668L410.603 233.003ZM413.923 220.611L410.055 220.178L414.724 225.107L422.626 225.829L413.923 220.611ZM420.983 220.022L420.261 223.565L420.86 223.921C421.507 224.03 422.283 224.085 423.085 224.205L421.876 220.179L420.983 220.022ZM443.186 225.3C443.406 225.284 443.534 225.231 443.701 225.086C443.905 224.851 443.991 224.513 444.078 224.176C444.138 223.773 444.069 223.425 443.963 223.167C443.883 222.974 443.739 222.807 443.584 222.796C443.52 222.823 443.493 222.758 443.429 222.785C443.364 222.811 443.236 222.865 443.134 222.983C442.93 223.218 442.843 223.556 442.757 223.893C442.701 224.671 442.914 225.186 443.186 225.3ZM442.111 225.066C441.978 224.744 441.948 224.304 442.008 223.902C442.105 223.409 442.294 222.954 442.536 222.627L440.567 222.236L440.635 224.773L442.111 225.066ZM439.545 216.473C439.537 215.722 438.961 215.056 438.185 215L433.099 225.484C435.415 225.806 437.731 226.129 439.956 226.413L439.545 216.473ZM454.962 233.77C455 233.679 455.064 233.653 455.037 233.588C455.264 233.042 455.206 232.537 454.865 232.075C454.683 232 454.555 232.053 454.426 232.106C453.976 232.293 453.788 232.748 453.974 233.199C454.133 233.586 454.55 233.866 454.962 233.77ZM444.97 234.368C446.419 234.597 447.944 234.644 449.405 234.717C450.839 234.726 452.402 234.681 453.847 234.535C453.911 234.508 454.066 234.519 454.131 234.492C453.767 234.341 453.479 234.008 453.293 233.557C452.948 232.72 453.298 231.744 454.134 231.398C454.198 231.371 454.198 231.371 454.262 231.344C454.001 231.076 453.766 230.871 453.531 230.667C453.505 230.602 453.44 230.629 453.414 230.565C453.214 231.176 452.549 231.753 451.456 232.206C451.199 232.313 450.877 232.446 450.529 232.515C450.337 232.595 450.128 232.455 450.048 232.262C449.969 232.069 450.108 231.86 450.301 231.78C452.181 231.227 452.6 230.6 452.713 230.327C452.725 230.171 452.736 230.016 452.645 229.978C451.459 229.112 450.059 228.636 448.518 228.37C443.33 227.655 429.796 225.873 422.564 224.949L424.45 226.053C424.631 226.129 424.647 226.349 424.636 226.504C424.598 226.595 424.496 226.713 424.432 226.74C424.367 226.766 424.303 226.793 424.212 226.755L414.486 225.809C414.396 225.771 414.305 225.734 414.214 225.696L413.808 225.261C413.771 225.352 413.759 225.507 413.748 225.663C413.79 225.947 413.897 226.205 414.105 226.345L416.294 228.002L416.396 227.884C416.461 227.858 416.589 227.804 416.654 227.778C417.274 227.822 420.495 228.146 421.29 228.797C421.408 228.899 421.461 229.028 421.423 229.119C421.412 229.275 421.31 229.393 421.181 229.446L419.665 230.15C421.172 230.883 422.792 231.343 424.461 231.556L427.088 231.901L427.292 231.665C427.329 231.574 427.458 231.521 427.549 231.558C427.832 231.516 434.015 230.99 437.585 232.527C437.676 232.565 437.82 232.731 437.809 232.887C437.797 233.042 437.76 233.133 437.658 233.251L437.593 233.278L444.97 234.368ZM432.193 241.176C432.595 241.236 432.976 240.7 433.058 239.987C433.118 239.585 433.05 239.236 432.943 238.978C432.864 238.785 432.72 238.619 432.565 238.607C432.5 238.634 432.474 238.57 432.409 238.596C432.152 238.703 431.808 239.147 431.764 239.769C431.682 240.483 431.921 241.062 432.193 241.176ZM431.092 240.878C430.959 240.556 430.928 240.116 430.988 239.714C431.086 239.221 431.274 238.765 431.516 238.439L430.313 238.259L427.402 240.145L431.092 240.878ZM415.594 246.928L436.636 233.147C433.498 232.109 428.734 232.425 427.856 232.487L413.801 247.143C414.41 247.343 415.069 247.297 415.594 246.928Z" fill="#475566" fill-opacity="0.6"/>
<mask id="path-2-inside-1_405_6491" fill="white">
<path d="M-136.888 49.0312C-138.341 47.9694 -139.802 47.0253 -141.536 46.5335C-143.857 45.9954 -146.576 46.0181 -148.714 44.6654C-150.176 43.7213 -152.895 39.2437 -149.165 39.8927C-146.601 40.3316 -141.542 40.6116 -139.623 38.7495C-134.762 34.04 -129.729 46.6345 -124.577 45.7375C-121.821 45.244 -120.956 41.7594 -118.267 43.6291C-116.589 44.8271 -114.84 46.6228 -113.679 48.3723C-111.985 50.8743 -113.379 52.0672 -116.117 52.3253C-118.61 52.4841 -121.058 52.0545 -123.641 51.851C-125.99 51.6661 -128.357 51.7165 -130.724 51.7669C-133.091 51.8173 -134.985 50.3654 -136.888 49.0312ZM-108.657 35.6224C-108.657 35.6224 -107.792 41.1382 -105.969 41.9924C-104.263 42.8373 -103.398 43.8529 -102.029 41.4737C-100.669 39.2123 -103.286 37.9403 -105.134 35.8999C-106.982 33.8595 -109.791 29.0196 -108.657 35.6224ZM-119.732 66.7255C-123.008 64.8095 -121.188 62.7027 -122.056 58.7262C-122.924 54.7498 -125.696 58.4395 -129.389 61.8199C-133.082 65.2003 -135.958 58.2234 -137.581 56.3192C-139.203 54.415 -137.531 54.1914 -146.508 52.6554C-155.358 51.0109 -154.635 50.831 -158.989 55.1067C-163.343 59.3824 -155.853 58.7881 -150.732 59.7836C-145.612 60.779 -145.736 63.8484 -146.456 66.9892C-147.176 70.13 -156.566 67.8508 -165.407 66.0886C-174.248 64.3264 -173.584 66.392 -178.321 68.0322C-183.058 69.6723 -192.27 63.6176 -196.16 62.0084C-200.051 60.3993 -227.423 59.9014 -231.415 59.5869C-235.408 59.2724 -237.88 62.1568 -241.044 63.3287C-244.208 64.5006 -243.352 70.1341 -243.674 72.7142C-243.995 75.2943 -249.681 72.4779 -252.734 72.2375C-255.787 71.997 -255.104 73.8272 -255.515 76.0449C-255.926 78.2627 -254.653 78.5998 -250.994 78.6511C-247.336 78.7025 -245.856 79.4112 -245.933 81.8921C-246.01 84.373 -250.722 82.6991 -253.658 82.4679C-256.594 82.2366 -255.827 87.5078 -255.583 91.9088C-255.339 96.3099 -252.465 95.8257 -250.914 97.1321C-249.363 98.4386 -247.144 100.271 -261.464 105.065C-275.784 109.858 -262.193 108.323 -259.771 107.567C-257.348 106.81 -246.764 104.446 -243.711 104.687C-240.658 104.927 -235.683 101.766 -231.548 98.7759C-227.414 95.7856 -215.44 98.2682 -206.76 99.0704C-198.079 99.8725 -192.066 119.531 -188.071 122.807C-184.075 126.082 -185.488 150.012 -186.161 157.064C-186.835 164.117 -182.048 169.349 -179.876 171.771C-177.704 174.192 -172.961 187.474 -167.296 196.565C-161.642 205.774 -163.715 194.597 -165.204 189.506C-166.684 184.297 -163.406 189.174 -163.406 189.174C-163.406 189.174 -153.153 203.008 -151.395 209.187C-149.637 215.365 -140.406 221.184 -133.985 222.164C-127.564 223.143 -127.82 224.9 -127.82 224.9C-127.82 224.9 -128.367 227.343 -120.691 228.895C-113.133 230.438 -114.898 236.339 -111.913 238.943C-108.927 241.546 -104.19 244.406 -99.8457 244.749C-95.501 245.091 -96.9904 244.5 -96.428 247.86C-95.8656 251.22 -99.271 255.452 -101.687 257.631C-104.104 259.809 -104.765 265.204 -105.266 271.56C-105.767 277.916 -103.403 279.405 -103.403 279.405C-103.403 279.405 -91.7407 302.351 -88.7279 304.601C-85.715 306.852 -86.5185 311.052 -86.5185 311.052C-86.5185 311.052 -89.0588 343.301 -89.3709 345.763C-89.6831 348.226 -89.9179 348.207 -92.2634 350.983C-94.6088 353.759 -94.7664 360.26 -94.7664 360.26C-94.7664 360.26 -97.3716 388.833 -97.5385 390.951C-97.7054 393.07 -94.6307 396.036 -84.3994 402.645C-74.1681 409.253 -81.2413 400.051 -82.2579 397.958C-83.2745 395.864 -82.0446 390.75 -81.7387 386.866C-81.4327 382.982 -77.9872 381.241 -76.5101 378.988C-75.033 376.736 -76.0682 374.878 -75.7437 370.759C-75.4192 366.639 -70.6728 364.882 -70.6728 364.882C-70.6728 364.882 -43.5229 341.203 -41.3412 339.006C-39.1596 336.809 -38.4457 332.247 -38.4766 329.639C-38.5075 327.031 -30.1641 320.109 -25.5691 317.274C-20.9741 314.438 -16.8641 305.761 -16.4717 303.779C-16.0792 301.796 -15.6002 297.215 -12.4884 295.21C-9.37667 293.205 -9.11398 288.371 -7.54106 283.402C-5.96815 278.434 -15.3157 277.105 -20.6647 273.013C-26.0137 268.92 -34.8545 267.158 -35.559 267.102C-36.2636 267.047 -40.2931 267.203 -39.8265 264.279C-39.3598 261.355 -41.4271 256.1 -42.6415 253.518C-43.8559 250.935 -46.0962 250.877 -48.797 250.664C-51.4977 250.452 -59.1148 242.154 -62.4521 239.522C-65.7894 236.891 -73.1006 238.21 -77.6956 236.545C-82.2906 234.881 -79.9422 235.066 -84.0767 233.556C-88.2113 232.046 -90.6711 237.773 -92.7136 238.205C-94.7562 238.636 -101.196 237.892 -103.517 237.354C-105.837 236.816 -107.274 232.558 -107.565 228.745C-107.855 224.933 -109.017 223.183 -112.048 221.168C-115.08 219.153 -115.234 215.114 -114.659 212.317C-114.085 209.52 -116.062 209.127 -118.402 208.825C-120.741 208.522 -120.698 209.473 -121.442 211.427C-122.187 213.382 -124.14 214.176 -129.124 212.954C-134.099 211.615 -135.74 205.446 -135.947 200.574C-136.154 195.702 -135.824 193.004 -132.313 190.439C-128.803 187.873 -127.984 189.477 -123.577 190.535C-119.171 191.592 -115.923 189.361 -112.746 186.532C-109.57 183.703 -106.455 189.159 -106.455 189.159C-106.455 189.159 -106.455 189.159 -102.234 197.071C-98.0129 204.983 -97.9974 197.286 -98.5968 189.897C-99.1963 182.507 -74.9418 161.087 -71.2769 158.06C-67.612 155.033 -68.0755 156.417 -62.1672 156.409C-56.2589 156.4 -53.555 150.574 -49.955 148.37C-46.355 146.167 -54.2317 145.665 -57.6061 143.504C-60.9805 141.344 -55.0722 141.335 -52.8751 140.442C-50.678 139.55 -46.1695 139.313 -40.3261 140.128C-34.4827 140.944 -47.4116 119.082 -49.6921 116.534C-51.9725 113.986 -50.9899 110.51 -51.8952 107.005C-52.8006 103.499 -57.2381 108.834 -60.4611 112.251C-63.6841 115.669 -63.2793 112.029 -62.6334 109.83C-61.9876 107.631 -64.1506 105.092 -64.9664 101.949C-65.7822 98.8052 -73.3715 99.1549 -76.063 98.8245C-78.7545 98.494 -78.3033 98.7664 -79.4869 103.292C-80.6704 107.817 -79.6105 110.861 -79.1223 115.163C-78.6341 119.465 -83.7854 124.862 -86.7179 127.592C-89.6505 130.322 -90.0769 126.735 -89.9625 123.784C-89.8482 120.832 -91.2944 121.192 -94.5451 120.462C-97.7959 119.732 -98.0215 119.596 -99.0721 116.434C-100.123 113.272 -104.264 110.341 -108.355 109.782C-112.446 109.223 -110.589 102.145 -110.221 98.9763C-109.844 95.69 -103.729 96.0533 -101.686 95.622C-99.6437 95.1908 -96.1889 93.3312 -93.1977 97.3564C-90.1972 101.264 -86.7393 97.8651 -86.7393 97.8651C-86.7393 97.8651 -81.3841 94.3788 -81.1987 92.0249C-81.0133 89.6709 -82.1257 90.2939 -85.2962 90.0442C-88.4667 89.7944 -88.9363 89.7574 -88.7231 87.0504C-88.5099 84.3434 -88.4913 84.108 -82.8457 84.4342C-77.2 84.7605 -79.3755 79.3783 -76.48 77.1194C-73.5845 74.8605 -71.1495 76.9471 -72.0179 81.9711C-72.8863 86.9951 -66.7091 83.5735 -63.5232 85.1271C-60.3373 86.6808 -61.9936 88.2083 -64.8581 88.5748C-67.7227 88.9413 -65.9181 90.0309 -65.3372 93.1558C-64.7562 96.2806 -65.0436 95.429 -56.175 96.8381C-47.3064 98.2472 -54.5773 93.0558 -55.0903 92.068C-55.6033 91.0802 -58.1186 88.5135 -50.0534 89.6225C-41.9882 90.7314 -46.5183 83.7427 -46.5183 83.7427C-46.5183 83.7427 -51.3851 73.5299 -57.6488 70.5496C-63.9124 67.5692 -62.1603 67.8257 -65.2318 63.3204C-68.3034 58.815 -81.4951 59.7893 -85.3516 59.2487C-89.208 58.7081 -89.1772 61.3159 -91.3681 63.6303C-93.4416 65.954 -88.9393 68.7956 -89.0907 76.7183C-89.2422 84.641 -93.8619 77.2899 -93.8619 77.2899C-93.8619 77.2899 -96.4112 73.6547 -97.4618 70.4928C-98.5125 67.331 -98.8524 65.6462 -96.7974 63.558C-94.7425 61.4697 -93.7258 59.0628 -97.2114 53.8143C-100.697 48.5658 -103.719 46.433 -105.345 46.0681C-106.97 45.7032 -106.76 49.0357 -106.748 51.8789C-106.735 54.7222 -105.054 54.3809 -103.188 56.1859C-101.439 57.9816 -102.502 60.977 -103.222 64.1178C-103.942 67.2586 -103.883 65.0131 -106.439 59.9563C-108.994 54.8995 -111.077 57.3409 -113.92 60.4329C-116.763 63.525 -109.875 66.0808 -110.104 71.9841C-110.332 77.8875 -113.24 72.8029 -113.24 72.8029C-113.24 72.8029 -116.457 68.6415 -119.732 66.7255ZM-235.535 171.887C-235.535 171.887 -233.962 184.919 -230.628 184.59C-223.96 183.931 -228.558 179.305 -233.774 172.026C-234.188 171.282 -236.008 168.889 -235.535 171.887ZM-96.7707 211.713C-96.0847 212.004 -95.3895 212.177 -94.8302 212.576C-93.9371 213.239 -93.316 214.353 -92.287 214.79C-90.9243 215.489 -87.9948 214.299 -86.5579 214.057C-80.458 213.116 -96.0198 206.679 -98.7824 205.751C-101.545 204.823 -102.321 204.17 -108.884 206.495C-115.447 208.821 -103.723 209.981 -103.723 209.981C-101.285 210.528 -98.9555 210.948 -96.7707 211.713ZM-82.8405 216.363C-82.8962 217.069 -82.9518 217.775 -82.8436 217.902C-82.3585 219.243 -80.6775 218.902 -79.5032 218.994C-78.4464 219.077 -71.8428 219.242 -74.8031 217.825C-76.6263 216.971 -78.5206 215.519 -80.5786 214.646C-83.5481 213.346 -82.7293 214.95 -82.8405 216.363ZM-96.4357 45.4671C-95.6539 47.5419 -94.217 47.2998 -93.0891 47.9808C-91.9613 48.6617 -91.7202 50.1019 -91.6368 53.5428C-91.5534 56.9838 -80.6484 56.54 -73.2414 57.005C-65.8344 57.47 -70.3428 53.2068 -79.7553 52.7022C-83.8744 52.4962 -84.2885 51.7531 -85.2866 49.4243C-86.2847 47.0956 -88.1542 46.8299 -90.7715 45.5579C-93.3889 44.2859 -93.0428 42.892 -95.4129 39.9815C-98.6482 36.0555 -97.3349 43.383 -97.3349 43.383C-97.3349 43.383 -97.2175 43.3922 -96.4357 45.4671ZM-67.2558 50.0155C-61.9717 50.4317 -58.0533 42.6873 -57.7165 41.4111C-57.3797 40.1349 -54.0331 38.1484 -49.8058 38.4813C-45.5785 38.8143 -43.3474 38.99 -41.2925 36.9018C-39.2376 34.8135 -41.3172 35.7155 -35.0906 34.6664C-28.864 33.6173 -28.8331 31.7249 -28.7651 29.3617C-28.6971 26.9985 -38.57 26.3393 -41.2801 26.2443C-43.9901 26.1493 -43.885 27.8155 -46.969 29.4674C-50.0529 31.1194 -67.645 27.9574 -73.2721 27.3957C-73.8592 27.3495 -74.4463 27.3032 -74.9345 27.5016C-74.3134 28.6164 -71.8661 29.046 -70.8463 29.6C-69.3662 30.3088 -68.6369 31.5505 -67.4102 32.4761C-66.1741 33.284 -64.6569 33.5219 -63.257 33.7506C-48.5821 36.446 -60.0742 36.8436 -61.2578 36.8688C-62.4413 36.894 -64.2644 36.0398 -64.8578 39.0722C-65.4511 42.1046 -69.2056 40.2693 -71.211 40.2298C-73.2165 40.1903 -72.4842 39.8927 -72.1875 36.1263C-71.8908 32.36 -80.6359 32.3818 -84.4027 32.2035C-88.1695 32.0253 -86.8934 35.3233 -87.4156 38.9535C-87.9379 42.5836 -86.9892 42.5399 -83.142 43.1982C-79.4122 43.8472 -80.7781 44.6871 -80.4845 46.9603C-80.191 49.2335 -74.292 49.3429 -74.292 49.3429C-74.292 49.3429 -72.5399 49.5993 -67.2558 50.0155ZM-22.9465 33.4912C-22.9465 33.4912 -26.2776 32.2815 -28.2336 34.6144C-30.1897 36.9473 -28.3295 37.3306 -32.4486 37.1246C-36.5677 36.9186 -36.3514 37.1725 -37.4855 39.5702C-38.6196 41.9678 -40.8012 44.1645 -43.7368 43.9333C-46.6725 43.7021 -51.286 42.2729 -50.9924 44.5461C-50.7082 46.937 -47.1886 53.2541 -45.2016 53.529C-43.2147 53.8039 -26.2747 53.2433 -25.0418 60.0908C-23.8181 67.056 -27.5264 78.1329 -24.5042 80.2658C-21.4821 82.3987 -23.0674 84.5239 -24.1705 85.0292C-25.2737 85.5344 -26.8157 84.1103 -27.0845 87.5235C-27.3534 90.9367 -26.1761 89.4899 -24.5198 92.4626C-22.8635 95.4353 -21.8407 94.45 -22.1744 98.6871C-22.5082 102.924 -23.1077 104.535 -19.9743 105.255C-16.841 105.976 -14.3441 108.778 -13.995 110.345C-13.6458 111.912 -10.3641 110.75 -9.3938 108.931C-8.42347 107.113 2.37039 94.5806 5.32455 94.5764C8.2787 94.5722 13.3001 95.323 13.6215 92.7429C13.9429 90.1628 12.5957 86.267 16.2451 86.436C19.8945 86.6051 26.8133 87.2684 30.1352 84.0957C33.4571 80.9229 40.0854 77.7738 34.2884 76.3697C31.6247 75.6862 29.3442 73.1381 30.9758 70.4243C31.121 70.0805 35.2031 70.7573 35.7995 70.6858C37.2271 70.5614 39.143 70.2386 40.0762 68.891C41.5626 66.5211 43.0489 64.1512 44.6527 61.7905C46.102 59.8914 50.6723 55.8696 45.4624 54.5118C43.8463 54.0292 43.1726 52.0813 45.6787 50.2654C45.6787 50.2654 49.8226 42.6572 53.3454 42.9347C54.4022 43.0179 64.4203 43.3333 63.141 41.5745C62.2851 40.4412 62.2851 40.4413 55.2767 39.4155C54.3466 39.2238 53.8244 38.3537 53.0302 37.9359C51.8838 37.4903 50.348 37.4878 49.1738 37.3953C42.805 37.2489 44.9094 37.5331 42.3848 35.0842C39.8602 32.6352 37.2769 32.4317 25.8774 31.6523C14.3606 30.8636 10.1086 29.3444 7.09568 31.5941C4.0828 33.8438 5.25395 35.4756 -0.734712 35.0039C-6.72334 34.5322 -22.9465 33.4912 -22.9465 33.4912ZM33.5898 100.237C33.562 100.59 33.5249 101.061 33.4971 101.414C33.4229 102.356 33.2839 104.121 34.5755 104.223C36.4543 104.371 38.3424 104.401 40.2304 104.431C41.1791 104.388 42.1988 104.942 42.9497 104.409C44.6864 103.361 45.5114 101.887 47.7703 101.709C48.719 101.666 51.2653 102.34 51.4939 100.937C51.5403 100.348 51.2993 94.4079 50.4155 93.6277C48.2061 91.6772 42.066 94.628 38.0736 94.3136C36.6645 94.2026 35.2925 93.6208 33.7475 93.736C32.4372 93.8696 32.7864 95.4367 32.9471 96.3968C33.423 97.8554 33.5744 98.9331 33.5898 100.237ZM61.8951 130.889C61.8951 130.889 56.9292 133.932 56.5893 136.748C56.2586 139.446 55.038 144.442 58.4927 142.582C62.0649 140.732 64.9017 136.218 64.9017 136.218C64.9017 136.218 66.4654 126.867 61.8951 130.889ZM69.3669 130.53C69.8521 131.871 69.9664 133.42 70.2074 134.86C70.5906 137.495 68.8879 139.611 67.3305 141.383C65.909 142.93 63.9807 144.909 66.1994 146.742C69.203 149.11 73.829 144.382 76.9315 142.495C79.4098 141.032 78.4673 137.997 77.2065 136.003C75.6491 133.275 73.7116 130.872 72.8866 127.847C72.1697 124.948 70.3311 122.79 68.7552 120.297C67.5933 118.548 65.7763 119.115 64.8307 122.12C64.0304 124.781 65.7979 126.341 67.3306 127.883C68.2143 128.663 68.9714 129.552 69.3669 130.53ZM108.948 138.03C104.539 138.511 102.116 139.268 97.9721 137.876C95.67 137.102 97.2367 130.712 94.8079 130.047C94.0045 129.747 92.7777 128.821 92.1257 129.599C91.7363 130.042 91.8692 131.355 91.8228 131.944C91.8475 133.13 92.3203 136.128 90.5404 136.224C88.1641 136.392 89.3414 134.946 87.543 139.778C85.7445 144.61 80.5283 146.331 78.8102 147.143C77.0921 147.955 74.3234 150.106 70.3309 149.791C66.3478 149.359 65.6586 150.608 68.653 153.094C70.9798 155.053 71.1281 157.67 71.1405 160.514C71.1405 160.514 71.1405 160.514 71.1312 160.631C71.1559 161.817 71.4185 165.983 69.6293 166.197C67.4879 166.384 60.4702 165.476 57.5346 165.245C54.599 165.014 55.4117 169.696 55.0718 172.512C54.7318 175.327 55.3622 176.324 56.283 176.634C57.1946 177.061 59.3422 178.296 60.3125 180.978C61.2828 183.659 65.2598 182.67 69.2337 183.22C73.2076 183.77 72.8739 179.006 73.6 177.287C74.3262 175.568 73.0006 174.398 77.0023 174.594C80.8865 174.782 82.4996 172.304 83.2011 169.398C83.9118 166.375 86.6249 169.431 90.6946 167.264C94.7643 165.098 100.296 172.876 102.839 175.09C104.056 176.133 107.248 179.108 106.958 179.796C106.006 181.379 99.9402 178.888 101.55 182.449C103.645 187.351 106.395 185.436 110.406 181.015C114.526 176.721 106.151 172.035 104.609 170.611C103.077 169.069 99.2883 166.165 102.375 162.974C105.453 159.9 111.398 168.422 111.398 168.422C114.149 171.007 118.002 177.587 119.003 182.876C120.131 188.058 120.681 188.575 125.233 189.289C129.784 190.002 126.735 183.722 126.215 181.313C125.57 179.012 125.616 178.423 128.542 178.772C131.469 179.121 132.541 185.009 134.018 187.257C135.495 189.505 141.128 191.488 143.551 190.731C146.091 189.984 146.87 189.098 149.465 192.145C152.061 195.191 145.056 201.627 143.032 201.823C141.008 202.018 137.182 204.086 132.68 201.244C128.187 198.285 127.328 198.691 122.118 197.333C116.908 195.975 117.517 198.747 115.975 201.823C114.433 204.899 112.035 202.342 110.972 200.837C109.909 199.332 100.533 193.857 97.2146 190.99C93.8959 188.123 94.687 185.58 93.5992 182.889C92.5115 180.198 88.2162 182.228 87.4468 182.996C86.6774 183.765 83.2628 183.614 80.0923 183.365C76.9219 183.115 75.794 182.434 73.7205 184.758C71.647 187.081 71.8757 185.678 68.1675 187.755C64.4594 189.831 61.0015 188.73 55.7793 189.029C50.5569 189.328 51.3047 199.335 51.1656 201.1C51.0265 202.866 50.0469 204.802 47.9704 204.165C45.8938 203.527 41.4193 213.833 38.7772 215.875C36.1351 217.917 37.0065 224.855 36.9385 227.218C36.8705 229.581 34.7259 231.307 33.3972 231.676C32.0684 232.045 33.0912 240.061 31.9942 241.987C30.8972 243.914 37.6058 245.745 37.6058 245.745C38.128 246.615 42.4696 248.497 45.0622 253.083C48.2759 258.784 51.8265 258.708 51.8265 258.708C51.8265 258.708 75.9077 260.486 81.4266 260.921C83.7751 261.106 85.9413 262.106 87.3195 264.109C88.5803 266.103 89.7483 269.274 88.2805 271.409C86.9393 273.435 86.0555 277.155 87.6593 279.295C88.5152 280.428 89.9861 281.254 91.0955 282.171C94.6769 284.703 95.199 294.573 94.8004 299.634C94.5408 302.93 93.9197 306.315 92.7207 309.537C92.4024 310.578 91.9667 311.609 91.1879 312.495C90.1373 313.834 89.7201 314.63 89.7078 316.287C89.5038 318.876 88.8116 321.664 91.5463 322.945C93.2521 323.79 95.3131 332.124 95.3131 332.124C95.3131 332.124 100.721 351.972 101.326 356.283C101.932 360.594 103.947 360.516 105.238 360.618C106.53 360.719 107.921 361.066 108.412 359.328C108.894 357.708 110.393 358.181 110.393 358.181C110.393 358.181 111.783 358.528 117.908 358.773C124.15 359.028 129.382 349.611 131.029 348.201C132.676 346.791 132.83 346.329 132.954 343.26C132.969 340.064 133.575 339.875 136.646 339.88C139.835 339.894 139.57 337.268 140.169 331.157C140.769 325.046 143.97 323.403 148.522 319.617C153.074 315.83 151.445 299.004 151.622 292.267C151.798 285.531 156.393 282.695 156.393 282.695C156.393 282.695 172.505 262.647 178.243 257.296C183.982 251.945 175.298 252.682 175.298 252.682C175.298 252.682 167.412 252.298 163.809 251.541C160.197 250.901 156.925 242.945 155.321 240.806C153.717 238.666 149.885 234.812 149.505 230.637C149.125 226.462 147.895 222.575 147.895 222.575C147.608 221.724 144.147 217.661 144.03 213.152C143.761 203.064 146.907 211.128 146.907 211.128C146.907 211.128 148.103 213.946 152.864 217.993C157.617 222.157 159.406 235.443 161.473 240.698C163.54 245.953 163.188 245.926 170.929 246.654C178.66 247.5 190.128 236.915 193.465 235.047C196.803 233.178 195.959 230.387 194.89 227.461C193.821 224.534 191.074 224.91 185.99 223.444C180.898 222.095 179.637 215.601 175.172 212.289C170.707 208.976 175.033 209.554 178.293 210.166C181.553 210.778 181.766 212.571 183.253 214.702C184.73 216.95 187.22 218.33 192.424 218.266C197.619 218.32 200.866 220.589 201.92 222.212C202.974 223.834 206.394 225.406 206.394 225.406C206.394 225.406 215.201 226.1 216.165 227.36C217.129 228.62 216.292 231.752 221.999 232.794C227.707 233.835 229.626 245.474 229.626 245.474C229.626 245.474 230.12 260.198 233.918 262.984C241.288 268.42 240.562 252.138 241.155 249.106C241.748 246.074 250.808 242.05 253.973 240.878C255.311 240.391 256.009 239.025 256.238 237.622C256.429 236.69 255.892 234.516 256.652 233.865C257.276 233.441 259.615 233.743 260.311 233.916C261.819 234.272 264.73 233.317 265.175 236.668C265.619 240.019 269.522 244.471 269.522 244.471C270.712 245.868 272.3 246.703 274.034 247.195C275.542 247.551 277.476 246.993 278.82 247.928C280.724 249.262 279.117 253.162 278.861 254.918C278.712 256.801 278.094 258.647 278.171 260.667C278.239 262.804 279.392 264.671 279.695 266.826C279.936 268.267 280.069 269.58 280.075 271.001C280.075 271.001 283.869 284.327 290.782 283.569C295.426 283.106 288.053 274.709 284.926 270.91C281.799 267.111 281.842 263.561 283.656 260.033C285.47 256.504 288.044 261.326 292.843 264.901C297.642 268.477 295.739 267.143 300.256 262.288C304.765 257.55 301.607 251.143 300.417 249.747C299.227 248.351 294.382 240.863 300.899 239.127C307.299 237.381 313.442 237.391 316.885 237.188C320.327 236.986 320.262 233.309 326.529 225.75C332.796 218.19 328.192 207.643 326.168 203.338C324.026 199.025 323.723 196.869 327.57 193.027C331.418 189.185 334.239 196.869 334.239 196.869C334.239 196.869 337.289 203.149 341.522 209.403C345.756 215.658 347.443 207.738 348.413 205.92C349.393 203.984 346.534 201.271 344.986 198.426C343.438 195.58 345.768 191.5 346.358 190.007C346.949 188.514 355.845 185.07 358.629 184.223C361.414 183.377 364.593 179.008 366.556 169.097C368.518 159.185 370.004 170.316 370.004 170.316C370.004 170.316 368.586 192.823 368.144 196.934C367.702 201.044 367.798 202.828 362.498 205.608C357.198 208.388 356.667 207.636 353.92 208.011C351.173 208.387 350.159 209.255 349.414 215.71C348.67 222.164 352.118 218.883 352.591 217.381C353.064 215.879 354.59 211.499 357.968 212.12C361.345 212.741 367.053 209.283 370.409 207.178C373.765 205.074 372.856 198.607 373.026 194.95C373.196 191.292 372.76 192.323 375.949 192.338C379.138 192.352 377.983 192.024 378.684 189.119C379.386 186.213 378.004 185.749 375.078 185.4C372.152 185.051 372.961 182.273 372.961 182.273C372.961 182.273 374.689 167.842 374.253 164.374C373.808 161.023 370.088 155.756 361.469 155.669C352.851 155.582 366.812 144.839 371.256 140.926C375.582 137.003 379.352 140.142 379.352 140.142C379.352 140.142 383.981 142.875 390.563 144.815C397.145 146.755 394.392 141.208 395.492 137.742C396.592 134.276 399.416 135.92 404.638 140.121C409.861 144.322 398.98 150.452 397.522 152.469C396.063 154.486 398.68 160.258 401.594 166.764C404.508 173.27 404.524 165.574 405.188 163.139C405.735 160.695 405.677 158.44 408.291 156.751C410.905 155.062 409.756 151.656 410.154 146.595C410.553 141.534 414.02 142.518 419.539 142.952C425.049 143.505 425.911 141.559 427.267 140.837C428.624 140.115 428.068 138.176 436.371 137.765C444.665 137.47 429.18 115.052 427.892 113.411C426.603 111.77 402.429 111.169 396.577 110.471C390.724 109.773 391.255 106.025 390.192 104.52C389.129 103.016 375.768 103.147 373.311 102.836C370.855 102.524 368.679 97.1415 366.584 96.7396C364.489 96.3378 363.5 98.3916 361.238 100.108C358.976 101.825 359.328 97.3524 359.242 95.4508C359.155 93.5491 357.91 92.8589 355.617 91.9678C353.324 91.0766 352.833 97.3145 352.549 99.4238C352.264 101.533 333.415 99.3379 329.784 98.9335C326.153 98.5291 325.294 94.4349 324.923 90.1423C324.552 85.8497 320.442 90.0262 320.442 90.0262L311.481 89.7941C311.481 89.7941 296.488 88.1395 292.449 88.4135C288.528 88.6968 292.829 83.5879 295.137 81.2828C297.455 78.8599 288.006 74.326 286.915 73.1742C285.824 72.0224 277.855 72.6974 276.257 71.9795C274.777 71.2707 273.807 68.5889 273.272 69.3758C272.737 70.1627 271.956 72.5881 270.092 73.744C268.229 74.9 266.622 74.2997 264.246 74.4678C261.869 74.6359 263.195 75.8062 255.247 74.7065C247.29 73.7245 246.521 78.9931 243.823 81.7413C241.008 84.4802 236.799 83.9119 234.794 83.8724C232.779 83.9505 233.168 88.0077 232.034 90.4054C230.9 92.803 227.587 86.8576 226.234 86.0404C224.89 85.1056 224.998 89.7327 224.998 89.7327C224.998 89.7327 223.805 103.376 223.107 104.742C222.408 106.109 218.873 93.9874 219.087 91.2804C219.417 88.5826 217.65 82.522 217.263 81.4258C216.985 80.4565 215.691 81.894 213.997 83.8923C212.304 85.8907 212.909 90.2017 212.325 93.1164C211.741 96.0311 210.218 94.3716 205.638 94.0109C201.059 93.6502 200.116 95.1155 198.098 96.733C196.081 98.3504 189.19 97.334 185.197 97.0195C181.205 96.705 179.032 98.7841 175.216 100.734C171.4 102.683 172.617 99.2262 170.519 95.8634C168.313 92.3737 167.064 97.723 165.587 99.9752C164.11 102.227 157.791 95.453 154.716 92.487C151.642 89.521 149.488 91.3647 147.726 91.2259C145.965 91.0872 143.913 91.6361 142.275 88.428C140.638 85.2199 135.678 85.1846 130.533 83.0029C125.388 80.8213 123.438 84.5758 117.644 86.1327C111.85 87.6896 110.182 90.8741 110.182 90.8741C110.182 90.8741 110.182 90.8741 109.579 94.0242C108.976 97.1743 104.823 100.4 102.116 103.266C99.4092 106.132 94.6937 105.997 91.9992 107.206C89.3046 108.415 90.4077 116.91 90.2562 120.333C90.114 123.637 95.701 121.709 99.2237 121.986C102.629 122.255 100.518 125.049 99.9375 126.424C99.6192 127.465 97.8764 127.091 97.4685 127.77C97.3418 127.878 97.3233 128.113 97.4129 128.476C97.7899 129.69 99.0074 130.733 99.6192 131.966C101.563 135.79 103.522 131.918 103.522 131.918C103.522 131.918 107.28 127.713 110.704 123.246C113.729 119.339 109.047 115.773 112.289 112.12C115.014 109.019 118.299 106.317 121.538 104.203C127.146 100.5 127.773 103.037 129.115 105.511C130.456 107.985 121.037 110.559 117.981 116.358C114.925 122.157 124.047 118.849 121.173 123.834C115.305 135.333 113.719 137.458 108.948 138.03ZM187.709 87.6248C189.251 89.0489 190.92 90.3646 192.715 91.5719C193.275 91.9712 195.846 93.8317 195.29 91.893C194.922 90.5614 193.967 89.1835 193.228 88.0595C191.751 85.8114 192.097 84.4176 192.32 81.5928C192.543 78.7681 198.364 76.8581 198.364 76.8581C218.5 68.733 199.99 72.7227 197.144 72.8539C194.424 72.8765 191.696 73.0169 190.25 73.3767C188.804 73.7365 185.336 77.2531 183.56 80.3107C183.016 81.2153 183.158 82.4107 183.436 83.3801C183.733 84.114 184.156 84.7395 184.823 85.2658C185.825 86.0552 186.943 86.8538 187.709 87.6248ZM160.53 318.668C158.911 319.724 158.976 323.401 158.367 329.629C158.228 331.395 159.476 344.046 162.755 339.923C162.764 339.805 167.084 334.461 167.452 331.292C167.829 328.006 170.789 324.923 172.022 322.77C173.255 320.617 172.9 317.629 171.049 312.627C169.198 307.626 165.975 315.544 165.975 315.544C165.168 316.783 162.149 317.611 160.53 318.668ZM282.525 292.393C284.021 294.405 285.507 296.536 287.003 298.548C287.75 299.555 288.498 300.561 289.246 301.567C290.111 302.583 291.211 303.617 291.588 304.831C291.965 306.045 291.718 307.683 292.583 308.699C293.34 309.588 294.632 309.689 295.698 309.655C300.287 309.898 304.848 310.494 309.545 310.864C336.553 312.991 316.269 309.499 315.113 309.171C313.958 308.843 311.445 309.237 309.344 307.414C307.243 305.59 297.107 305.266 297.107 305.266C297.107 305.266 293.575 305.106 294.277 302.2C294.978 299.295 293.551 299.419 289.673 291.653C285.795 283.887 285.621 289.084 279.142 281.349C272.662 273.615 276.431 281.254 277.618 284.19C278.805 287.126 281.688 291.024 281.688 291.024C281.885 291.513 282.201 292.012 282.525 292.393ZM320.926 298.378C320.336 299.871 320.224 301.284 321.939 302.011C325.153 303.211 324.649 302.106 328.104 300.246C328.719 299.939 330.564 299.019 330.511 298.186C330.45 297.47 328.923 297.35 328.364 296.951C327.814 296.434 327.273 295.799 326.569 295.743C325.638 295.552 324.699 295.478 323.75 295.521C322.567 295.547 321.952 295.853 321.525 296.767C321.253 297.22 321.09 297.799 320.926 298.378ZM310.586 296.143C311.643 296.226 312.817 296.318 313.911 295.931C314.879 295.652 315.531 294.874 316.282 294.341C317.657 293.383 317.984 292.225 318.312 291.067C319.267 287.944 319.301 284.512 319.551 281.335C319.996 275.685 319.091 276.68 318.337 274.252C317.969 272.92 313.856 274.136 312.11 275.301C310.364 276.466 311.127 278.776 310.88 280.415C310.713 282.533 308.572 282.72 307.079 283.668C305.216 284.824 303.461 286.107 301.705 287.39C299.453 288.989 301.301 291.029 302.092 292.987C302.289 293.476 302.595 294.092 303.037 294.482C303.804 295.253 304.851 295.454 305.781 295.646C305.899 295.655 305.899 295.655 306.016 295.664C307.533 295.902 309.06 296.022 310.586 296.143ZM331.541 271.621C332.224 273.451 333.259 275.309 334.186 277.04C334.699 278.028 335.87 279.659 337.118 278.81C338.738 277.753 338.543 275.725 338.663 274.195C338.942 270.664 339.702 265.513 338.487 262.93C337.156 260.338 334.449 258.704 332.873 256.211C331.603 254.335 330.41 254.478 329.168 247.748C327.808 241.009 327.746 249.294 327.069 253.386C326.393 257.478 329.891 261.069 329.891 261.069C332.35 264.342 330.292 267.969 331.541 271.621ZM357.741 306.489C359.141 306.717 360.396 307.29 361.243 308.541C362.306 310.046 362.528 311.721 363.347 313.325C363.851 314.431 364.679 315.917 366.233 315.684C367.679 315.324 369.2 314.023 370.253 315.646C371.73 317.894 372.626 317.017 372.626 317.017C373.124 316.701 376.94 314.751 378.59 316.302C388.148 325.463 384.295 318.883 381.971 315.384C379.647 311.885 373.452 306.542 370.748 303.368C368.044 300.194 361.851 302.312 358.601 301.582C355.35 300.853 356.638 297.993 355.035 295.854C353.431 293.714 346.219 295.278 344.64 294.324C343.061 293.371 342.266 292.953 342.442 290.717C342.47 290.364 341.998 287.366 341.092 288.361C340.703 288.804 340.836 290.117 340.789 290.705C340.715 291.647 340.641 292.588 340.684 293.539C340.86 295.803 342.696 295 345.492 296.997C348.298 298.876 349.123 301.902 349.516 304.42C349.828 306.457 352.303 306.534 354.2 306.447C355.384 306.421 356.567 306.396 357.741 306.489ZM366.823 395.195C366.245 395.031 365.08 394.821 364.789 395.509C364.499 396.197 365.726 397.122 365.679 397.711C365.605 398.652 365.138 401.576 367.938 402.034C370.62 402.482 371.22 400.871 372.02 398.21C372.175 397.749 372.212 397.278 372.014 396.789C371.708 396.172 370.895 395.99 370.308 395.944C369.731 395.78 369.143 395.733 368.448 395.56C367.87 395.396 367.401 395.359 366.823 395.195ZM340.205 325.122C337.007 325.225 333.913 326.995 331.092 328.312C329.257 329.115 327.285 330.144 326.306 332.08C325.471 333.672 325.366 336.506 324.992 338.253C324.473 340.344 319.102 338.026 316.961 338.213C314.82 338.399 315.357 340.573 314.597 341.224C313.719 341.865 310.849 340.81 308.346 341.087C305.364 341.444 306.365 346.734 305.972 348.716C305.58 350.699 304.718 352.644 304.091 354.608C302.854 358.3 305.113 358.123 306.918 359.212C308.723 360.302 306.535 365.577 306.655 368.547C306.794 371.282 310.113 374.149 312.27 375.266C313.741 376.093 315.647 375.888 317.291 376.017C319.17 376.165 321.04 376.431 322.838 376.099C324.637 375.767 326.039 374.456 327.649 373.517C330.137 371.936 332.785 371.316 335.702 371.783C338.737 372.258 341.645 372.843 344.688 373.201C346.332 373.33 349.197 372.964 349.5 375.119C349.731 376.677 349.367 378.307 349.599 379.864C350.043 383.215 352.367 382.214 355.068 382.427C357.769 382.64 357.719 384.767 358.266 386.824C359.172 390.329 361.656 390.288 364.709 390.529C366.823 390.695 368.936 390.862 371.059 390.91C374.727 390.844 377.246 387.371 377.246 387.371C377.246 387.371 382.709 379.512 385.317 376.401C387.925 373.29 389.449 365.95 389.903 360.182C390.357 354.415 383.012 345.665 383.012 345.665C383.012 345.665 373.374 331.524 371.653 329.375C369.932 327.226 371.301 324.847 370.772 322.555C370.361 320.273 368.313 323.783 366.27 324.214C364.228 324.645 364.654 332.732 364.561 333.909C364.469 335.086 362.021 334.656 360.859 332.907C359.697 331.157 358.848 331.446 357.052 330.238C355.257 329.031 354.24 326.938 354.256 323.741C354.389 320.554 351.017 321.355 347.269 320.941C343.521 320.527 344.955 321.824 344.092 323.77C343.521 325.027 342.102 325.034 340.919 325.059C340.566 325.032 340.322 325.131 340.205 325.122ZM415.103 407.762L414.976 407.87C413.564 409.299 409.281 414.172 411.601 414.71C413.805 415.239 416.521 416.756 418.051 415.336C419.599 413.682 419.24 412.233 423.597 410.918C425.776 410.26 428.047 403.926 428.047 403.926C428.047 403.926 427.528 401.516 426.23 399.993C425.139 398.841 422.006 402.621 420.866 403.597C418.975 405.106 416.759 406.234 415.103 407.762ZM434.954 397.246C435.97 394.839 437.62 396.39 437.759 394.624C437.899 392.859 432.982 389.274 431.341 387.605C428.05 384.386 430.847 390.882 429.895 392.465C428.69 394.265 428.573 394.256 429.218 396.557C429.407 397.164 429.771 400.035 430.34 400.317C433.653 401.762 433.928 399.77 434.954 397.246Z"/>
</mask>
<path d="M-136.888 49.0312C-138.341 47.9694 -139.802 47.0253 -141.536 46.5335C-143.857 45.9954 -146.576 46.0181 -148.714 44.6654C-150.176 43.7213 -152.895 39.2437 -149.165 39.8927C-146.601 40.3316 -141.542 40.6116 -139.623 38.7495C-134.762 34.04 -129.729 46.6345 -124.577 45.7375C-121.821 45.244 -120.956 41.7594 -118.267 43.6291C-116.589 44.8271 -114.84 46.6228 -113.679 48.3723C-111.985 50.8743 -113.379 52.0672 -116.117 52.3253C-118.61 52.4841 -121.058 52.0545 -123.641 51.851C-125.99 51.6661 -128.357 51.7165 -130.724 51.7669C-133.091 51.8173 -134.985 50.3654 -136.888 49.0312ZM-108.657 35.6224C-108.657 35.6224 -107.792 41.1382 -105.969 41.9924C-104.263 42.8373 -103.398 43.8529 -102.029 41.4737C-100.669 39.2123 -103.286 37.9403 -105.134 35.8999C-106.982 33.8595 -109.791 29.0196 -108.657 35.6224ZM-119.732 66.7255C-123.008 64.8095 -121.188 62.7027 -122.056 58.7262C-122.924 54.7498 -125.696 58.4395 -129.389 61.8199C-133.082 65.2003 -135.958 58.2234 -137.581 56.3192C-139.203 54.415 -137.531 54.1914 -146.508 52.6554C-155.358 51.0109 -154.635 50.831 -158.989 55.1067C-163.343 59.3824 -155.853 58.7881 -150.732 59.7836C-145.612 60.779 -145.736 63.8484 -146.456 66.9892C-147.176 70.13 -156.566 67.8508 -165.407 66.0886C-174.248 64.3264 -173.584 66.392 -178.321 68.0322C-183.058 69.6723 -192.27 63.6176 -196.16 62.0084C-200.051 60.3993 -227.423 59.9014 -231.415 59.5869C-235.408 59.2724 -237.88 62.1568 -241.044 63.3287C-244.208 64.5006 -243.352 70.1341 -243.674 72.7142C-243.995 75.2943 -249.681 72.4779 -252.734 72.2375C-255.787 71.997 -255.104 73.8272 -255.515 76.0449C-255.926 78.2627 -254.653 78.5998 -250.994 78.6511C-247.336 78.7025 -245.856 79.4112 -245.933 81.8921C-246.01 84.373 -250.722 82.6991 -253.658 82.4679C-256.594 82.2366 -255.827 87.5078 -255.583 91.9088C-255.339 96.3099 -252.465 95.8257 -250.914 97.1321C-249.363 98.4386 -247.144 100.271 -261.464 105.065C-275.784 109.858 -262.193 108.323 -259.771 107.567C-257.348 106.81 -246.764 104.446 -243.711 104.687C-240.658 104.927 -235.683 101.766 -231.548 98.7759C-227.414 95.7856 -215.44 98.2682 -206.76 99.0704C-198.079 99.8725 -192.066 119.531 -188.071 122.807C-184.075 126.082 -185.488 150.012 -186.161 157.064C-186.835 164.117 -182.048 169.349 -179.876 171.771C-177.704 174.192 -172.961 187.474 -167.296 196.565C-161.642 205.774 -163.715 194.597 -165.204 189.506C-166.684 184.297 -163.406 189.174 -163.406 189.174C-163.406 189.174 -153.153 203.008 -151.395 209.187C-149.637 215.365 -140.406 221.184 -133.985 222.164C-127.564 223.143 -127.82 224.9 -127.82 224.9C-127.82 224.9 -128.367 227.343 -120.691 228.895C-113.133 230.438 -114.898 236.339 -111.913 238.943C-108.927 241.546 -104.19 244.406 -99.8457 244.749C-95.501 245.091 -96.9904 244.5 -96.428 247.86C-95.8656 251.22 -99.271 255.452 -101.687 257.631C-104.104 259.809 -104.765 265.204 -105.266 271.56C-105.767 277.916 -103.403 279.405 -103.403 279.405C-103.403 279.405 -91.7407 302.351 -88.7279 304.601C-85.715 306.852 -86.5185 311.052 -86.5185 311.052C-86.5185 311.052 -89.0588 343.301 -89.3709 345.763C-89.6831 348.226 -89.9179 348.207 -92.2634 350.983C-94.6088 353.759 -94.7664 360.26 -94.7664 360.26C-94.7664 360.26 -97.3716 388.833 -97.5385 390.951C-97.7054 393.07 -94.6307 396.036 -84.3994 402.645C-74.1681 409.253 -81.2413 400.051 -82.2579 397.958C-83.2745 395.864 -82.0446 390.75 -81.7387 386.866C-81.4327 382.982 -77.9872 381.241 -76.5101 378.988C-75.033 376.736 -76.0682 374.878 -75.7437 370.759C-75.4192 366.639 -70.6728 364.882 -70.6728 364.882C-70.6728 364.882 -43.5229 341.203 -41.3412 339.006C-39.1596 336.809 -38.4457 332.247 -38.4766 329.639C-38.5075 327.031 -30.1641 320.109 -25.5691 317.274C-20.9741 314.438 -16.8641 305.761 -16.4717 303.779C-16.0792 301.796 -15.6002 297.215 -12.4884 295.21C-9.37667 293.205 -9.11398 288.371 -7.54106 283.402C-5.96815 278.434 -15.3157 277.105 -20.6647 273.013C-26.0137 268.92 -34.8545 267.158 -35.559 267.102C-36.2636 267.047 -40.2931 267.203 -39.8265 264.279C-39.3598 261.355 -41.4271 256.1 -42.6415 253.518C-43.8559 250.935 -46.0962 250.877 -48.797 250.664C-51.4977 250.452 -59.1148 242.154 -62.4521 239.522C-65.7894 236.891 -73.1006 238.21 -77.6956 236.545C-82.2906 234.881 -79.9422 235.066 -84.0767 233.556C-88.2113 232.046 -90.6711 237.773 -92.7136 238.205C-94.7562 238.636 -101.196 237.892 -103.517 237.354C-105.837 236.816 -107.274 232.558 -107.565 228.745C-107.855 224.933 -109.017 223.183 -112.048 221.168C-115.08 219.153 -115.234 215.114 -114.659 212.317C-114.085 209.52 -116.062 209.127 -118.402 208.825C-120.741 208.522 -120.698 209.473 -121.442 211.427C-122.187 213.382 -124.14 214.176 -129.124 212.954C-134.099 211.615 -135.74 205.446 -135.947 200.574C-136.154 195.702 -135.824 193.004 -132.313 190.439C-128.803 187.873 -127.984 189.477 -123.577 190.535C-119.171 191.592 -115.923 189.361 -112.746 186.532C-109.57 183.703 -106.455 189.159 -106.455 189.159C-106.455 189.159 -106.455 189.159 -102.234 197.071C-98.0129 204.983 -97.9974 197.286 -98.5968 189.897C-99.1963 182.507 -74.9418 161.087 -71.2769 158.06C-67.612 155.033 -68.0755 156.417 -62.1672 156.409C-56.2589 156.4 -53.555 150.574 -49.955 148.37C-46.355 146.167 -54.2317 145.665 -57.6061 143.504C-60.9805 141.344 -55.0722 141.335 -52.8751 140.442C-50.678 139.55 -46.1695 139.313 -40.3261 140.128C-34.4827 140.944 -47.4116 119.082 -49.6921 116.534C-51.9725 113.986 -50.9899 110.51 -51.8952 107.005C-52.8006 103.499 -57.2381 108.834 -60.4611 112.251C-63.6841 115.669 -63.2793 112.029 -62.6334 109.83C-61.9876 107.631 -64.1506 105.092 -64.9664 101.949C-65.7822 98.8052 -73.3715 99.1549 -76.063 98.8245C-78.7545 98.494 -78.3033 98.7664 -79.4869 103.292C-80.6704 107.817 -79.6105 110.861 -79.1223 115.163C-78.6341 119.465 -83.7854 124.862 -86.7179 127.592C-89.6505 130.322 -90.0769 126.735 -89.9625 123.784C-89.8482 120.832 -91.2944 121.192 -94.5451 120.462C-97.7959 119.732 -98.0215 119.596 -99.0721 116.434C-100.123 113.272 -104.264 110.341 -108.355 109.782C-112.446 109.223 -110.589 102.145 -110.221 98.9763C-109.844 95.69 -103.729 96.0533 -101.686 95.622C-99.6437 95.1908 -96.1889 93.3312 -93.1977 97.3564C-90.1972 101.264 -86.7393 97.8651 -86.7393 97.8651C-86.7393 97.8651 -81.3841 94.3788 -81.1987 92.0249C-81.0133 89.6709 -82.1257 90.2939 -85.2962 90.0442C-88.4667 89.7944 -88.9363 89.7574 -88.7231 87.0504C-88.5099 84.3434 -88.4913 84.108 -82.8457 84.4342C-77.2 84.7605 -79.3755 79.3783 -76.48 77.1194C-73.5845 74.8605 -71.1495 76.9471 -72.0179 81.9711C-72.8863 86.9951 -66.7091 83.5735 -63.5232 85.1271C-60.3373 86.6808 -61.9936 88.2083 -64.8581 88.5748C-67.7227 88.9413 -65.9181 90.0309 -65.3372 93.1558C-64.7562 96.2806 -65.0436 95.429 -56.175 96.8381C-47.3064 98.2472 -54.5773 93.0558 -55.0903 92.068C-55.6033 91.0802 -58.1186 88.5135 -50.0534 89.6225C-41.9882 90.7314 -46.5183 83.7427 -46.5183 83.7427C-46.5183 83.7427 -51.3851 73.5299 -57.6488 70.5496C-63.9124 67.5692 -62.1603 67.8257 -65.2318 63.3204C-68.3034 58.815 -81.4951 59.7893 -85.3516 59.2487C-89.208 58.7081 -89.1772 61.3159 -91.3681 63.6303C-93.4416 65.954 -88.9393 68.7956 -89.0907 76.7183C-89.2422 84.641 -93.8619 77.2899 -93.8619 77.2899C-93.8619 77.2899 -96.4112 73.6547 -97.4618 70.4928C-98.5125 67.331 -98.8524 65.6462 -96.7974 63.558C-94.7425 61.4697 -93.7258 59.0628 -97.2114 53.8143C-100.697 48.5658 -103.719 46.433 -105.345 46.0681C-106.97 45.7032 -106.76 49.0357 -106.748 51.8789C-106.735 54.7222 -105.054 54.3809 -103.188 56.1859C-101.439 57.9816 -102.502 60.977 -103.222 64.1178C-103.942 67.2586 -103.883 65.0131 -106.439 59.9563C-108.994 54.8995 -111.077 57.3409 -113.92 60.4329C-116.763 63.525 -109.875 66.0808 -110.104 71.9841C-110.332 77.8875 -113.24 72.8029 -113.24 72.8029C-113.24 72.8029 -116.457 68.6415 -119.732 66.7255ZM-235.535 171.887C-235.535 171.887 -233.962 184.919 -230.628 184.59C-223.96 183.931 -228.558 179.305 -233.774 172.026C-234.188 171.282 -236.008 168.889 -235.535 171.887ZM-96.7707 211.713C-96.0847 212.004 -95.3895 212.177 -94.8302 212.576C-93.9371 213.239 -93.316 214.353 -92.287 214.79C-90.9243 215.489 -87.9948 214.299 -86.5579 214.057C-80.458 213.116 -96.0198 206.679 -98.7824 205.751C-101.545 204.823 -102.321 204.17 -108.884 206.495C-115.447 208.821 -103.723 209.981 -103.723 209.981C-101.285 210.528 -98.9555 210.948 -96.7707 211.713ZM-82.8405 216.363C-82.8962 217.069 -82.9518 217.775 -82.8436 217.902C-82.3585 219.243 -80.6775 218.902 -79.5032 218.994C-78.4464 219.077 -71.8428 219.242 -74.8031 217.825C-76.6263 216.971 -78.5206 215.519 -80.5786 214.646C-83.5481 213.346 -82.7293 214.95 -82.8405 216.363ZM-96.4357 45.4671C-95.6539 47.5419 -94.217 47.2998 -93.0891 47.9808C-91.9613 48.6617 -91.7202 50.1019 -91.6368 53.5428C-91.5534 56.9838 -80.6484 56.54 -73.2414 57.005C-65.8344 57.47 -70.3428 53.2068 -79.7553 52.7022C-83.8744 52.4962 -84.2885 51.7531 -85.2866 49.4243C-86.2847 47.0956 -88.1542 46.8299 -90.7715 45.5579C-93.3889 44.2859 -93.0428 42.892 -95.4129 39.9815C-98.6482 36.0555 -97.3349 43.383 -97.3349 43.383C-97.3349 43.383 -97.2175 43.3922 -96.4357 45.4671ZM-67.2558 50.0155C-61.9717 50.4317 -58.0533 42.6873 -57.7165 41.4111C-57.3797 40.1349 -54.0331 38.1484 -49.8058 38.4813C-45.5785 38.8143 -43.3474 38.99 -41.2925 36.9018C-39.2376 34.8135 -41.3172 35.7155 -35.0906 34.6664C-28.864 33.6173 -28.8331 31.7249 -28.7651 29.3617C-28.6971 26.9985 -38.57 26.3393 -41.2801 26.2443C-43.9901 26.1493 -43.885 27.8155 -46.969 29.4674C-50.0529 31.1194 -67.645 27.9574 -73.2721 27.3957C-73.8592 27.3495 -74.4463 27.3032 -74.9345 27.5016C-74.3134 28.6164 -71.8661 29.046 -70.8463 29.6C-69.3662 30.3088 -68.6369 31.5505 -67.4102 32.4761C-66.1741 33.284 -64.6569 33.5219 -63.257 33.7506C-48.5821 36.446 -60.0742 36.8436 -61.2578 36.8688C-62.4413 36.894 -64.2644 36.0398 -64.8578 39.0722C-65.4511 42.1046 -69.2056 40.2693 -71.211 40.2298C-73.2165 40.1903 -72.4842 39.8927 -72.1875 36.1263C-71.8908 32.36 -80.6359 32.3818 -84.4027 32.2035C-88.1695 32.0253 -86.8934 35.3233 -87.4156 38.9535C-87.9379 42.5836 -86.9892 42.5399 -83.142 43.1982C-79.4122 43.8472 -80.7781 44.6871 -80.4845 46.9603C-80.191 49.2335 -74.292 49.3429 -74.292 49.3429C-74.292 49.3429 -72.5399 49.5993 -67.2558 50.0155ZM-22.9465 33.4912C-22.9465 33.4912 -26.2776 32.2815 -28.2336 34.6144C-30.1897 36.9473 -28.3295 37.3306 -32.4486 37.1246C-36.5677 36.9186 -36.3514 37.1725 -37.4855 39.5702C-38.6196 41.9678 -40.8012 44.1645 -43.7368 43.9333C-46.6725 43.7021 -51.286 42.2729 -50.9924 44.5461C-50.7082 46.937 -47.1886 53.2541 -45.2016 53.529C-43.2147 53.8039 -26.2747 53.2433 -25.0418 60.0908C-23.8181 67.056 -27.5264 78.1329 -24.5042 80.2658C-21.4821 82.3987 -23.0674 84.5239 -24.1705 85.0292C-25.2737 85.5344 -26.8157 84.1103 -27.0845 87.5235C-27.3534 90.9367 -26.1761 89.4899 -24.5198 92.4626C-22.8635 95.4353 -21.8407 94.45 -22.1744 98.6871C-22.5082 102.924 -23.1077 104.535 -19.9743 105.255C-16.841 105.976 -14.3441 108.778 -13.995 110.345C-13.6458 111.912 -10.3641 110.75 -9.3938 108.931C-8.42347 107.113 2.37039 94.5806 5.32455 94.5764C8.2787 94.5722 13.3001 95.323 13.6215 92.7429C13.9429 90.1628 12.5957 86.267 16.2451 86.436C19.8945 86.6051 26.8133 87.2684 30.1352 84.0957C33.4571 80.9229 40.0854 77.7738 34.2884 76.3697C31.6247 75.6862 29.3442 73.1381 30.9758 70.4243C31.121 70.0805 35.2031 70.7573 35.7995 70.6858C37.2271 70.5614 39.143 70.2386 40.0762 68.891C41.5626 66.5211 43.0489 64.1512 44.6527 61.7905C46.102 59.8914 50.6723 55.8696 45.4624 54.5118C43.8463 54.0292 43.1726 52.0813 45.6787 50.2654C45.6787 50.2654 49.8226 42.6572 53.3454 42.9347C54.4022 43.0179 64.4203 43.3333 63.141 41.5745C62.2851 40.4412 62.2851 40.4413 55.2767 39.4155C54.3466 39.2238 53.8244 38.3537 53.0302 37.9359C51.8838 37.4903 50.348 37.4878 49.1738 37.3953C42.805 37.2489 44.9094 37.5331 42.3848 35.0842C39.8602 32.6352 37.2769 32.4317 25.8774 31.6523C14.3606 30.8636 10.1086 29.3444 7.09568 31.5941C4.0828 33.8438 5.25395 35.4756 -0.734712 35.0039C-6.72334 34.5322 -22.9465 33.4912 -22.9465 33.4912ZM33.5898 100.237C33.562 100.59 33.5249 101.061 33.4971 101.414C33.4229 102.356 33.2839 104.121 34.5755 104.223C36.4543 104.371 38.3424 104.401 40.2304 104.431C41.1791 104.388 42.1988 104.942 42.9497 104.409C44.6864 103.361 45.5114 101.887 47.7703 101.709C48.719 101.666 51.2653 102.34 51.4939 100.937C51.5403 100.348 51.2993 94.4079 50.4155 93.6277C48.2061 91.6772 42.066 94.628 38.0736 94.3136C36.6645 94.2026 35.2925 93.6208 33.7475 93.736C32.4372 93.8696 32.7864 95.4367 32.9471 96.3968C33.423 97.8554 33.5744 98.9331 33.5898 100.237ZM61.8951 130.889C61.8951 130.889 56.9292 133.932 56.5893 136.748C56.2586 139.446 55.038 144.442 58.4927 142.582C62.0649 140.732 64.9017 136.218 64.9017 136.218C64.9017 136.218 66.4654 126.867 61.8951 130.889ZM69.3669 130.53C69.8521 131.871 69.9664 133.42 70.2074 134.86C70.5906 137.495 68.8879 139.611 67.3305 141.383C65.909 142.93 63.9807 144.909 66.1994 146.742C69.203 149.11 73.829 144.382 76.9315 142.495C79.4098 141.032 78.4673 137.997 77.2065 136.003C75.6491 133.275 73.7116 130.872 72.8866 127.847C72.1697 124.948 70.3311 122.79 68.7552 120.297C67.5933 118.548 65.7763 119.115 64.8307 122.12C64.0304 124.781 65.7979 126.341 67.3306 127.883C68.2143 128.663 68.9714 129.552 69.3669 130.53ZM108.948 138.03C104.539 138.511 102.116 139.268 97.9721 137.876C95.67 137.102 97.2367 130.712 94.8079 130.047C94.0045 129.747 92.7777 128.821 92.1257 129.599C91.7363 130.042 91.8692 131.355 91.8228 131.944C91.8475 133.13 92.3203 136.128 90.5404 136.224C88.1641 136.392 89.3414 134.946 87.543 139.778C85.7445 144.61 80.5283 146.331 78.8102 147.143C77.0921 147.955 74.3234 150.106 70.3309 149.791C66.3478 149.359 65.6586 150.608 68.653 153.094C70.9798 155.053 71.1281 157.67 71.1405 160.514C71.1405 160.514 71.1405 160.514 71.1312 160.631C71.1559 161.817 71.4185 165.983 69.6293 166.197C67.4879 166.384 60.4702 165.476 57.5346 165.245C54.599 165.014 55.4117 169.696 55.0718 172.512C54.7318 175.327 55.3622 176.324 56.283 176.634C57.1946 177.061 59.3422 178.296 60.3125 180.978C61.2828 183.659 65.2598 182.67 69.2337 183.22C73.2076 183.77 72.8739 179.006 73.6 177.287C74.3262 175.568 73.0006 174.398 77.0023 174.594C80.8865 174.782 82.4996 172.304 83.2011 169.398C83.9118 166.375 86.6249 169.431 90.6946 167.264C94.7643 165.098 100.296 172.876 102.839 175.09C104.056 176.133 107.248 179.108 106.958 179.796C106.006 181.379 99.9402 178.888 101.55 182.449C103.645 187.351 106.395 185.436 110.406 181.015C114.526 176.721 106.151 172.035 104.609 170.611C103.077 169.069 99.2883 166.165 102.375 162.974C105.453 159.9 111.398 168.422 111.398 168.422C114.149 171.007 118.002 177.587 119.003 182.876C120.131 188.058 120.681 188.575 125.233 189.289C129.784 190.002 126.735 183.722 126.215 181.313C125.57 179.012 125.616 178.423 128.542 178.772C131.469 179.121 132.541 185.009 134.018 187.257C135.495 189.505 141.128 191.488 143.551 190.731C146.091 189.984 146.87 189.098 149.465 192.145C152.061 195.191 145.056 201.627 143.032 201.823C141.008 202.018 137.182 204.086 132.68 201.244C128.187 198.285 127.328 198.691 122.118 197.333C116.908 195.975 117.517 198.747 115.975 201.823C114.433 204.899 112.035 202.342 110.972 200.837C109.909 199.332 100.533 193.857 97.2146 190.99C93.8959 188.123 94.687 185.58 93.5992 182.889C92.5115 180.198 88.2162 182.228 87.4468 182.996C86.6774 183.765 83.2628 183.614 80.0923 183.365C76.9219 183.115 75.794 182.434 73.7205 184.758C71.647 187.081 71.8757 185.678 68.1675 187.755C64.4594 189.831 61.0015 188.73 55.7793 189.029C50.5569 189.328 51.3047 199.335 51.1656 201.1C51.0265 202.866 50.0469 204.802 47.9704 204.165C45.8938 203.527 41.4193 213.833 38.7772 215.875C36.1351 217.917 37.0065 224.855 36.9385 227.218C36.8705 229.581 34.7259 231.307 33.3972 231.676C32.0684 232.045 33.0912 240.061 31.9942 241.987C30.8972 243.914 37.6058 245.745 37.6058 245.745C38.128 246.615 42.4696 248.497 45.0622 253.083C48.2759 258.784 51.8265 258.708 51.8265 258.708C51.8265 258.708 75.9077 260.486 81.4266 260.921C83.7751 261.106 85.9413 262.106 87.3195 264.109C88.5803 266.103 89.7483 269.274 88.2805 271.409C86.9393 273.435 86.0555 277.155 87.6593 279.295C88.5152 280.428 89.9861 281.254 91.0955 282.171C94.6769 284.703 95.199 294.573 94.8004 299.634C94.5408 302.93 93.9197 306.315 92.7207 309.537C92.4024 310.578 91.9667 311.609 91.1879 312.495C90.1373 313.834 89.7201 314.63 89.7078 316.287C89.5038 318.876 88.8116 321.664 91.5463 322.945C93.2521 323.79 95.3131 332.124 95.3131 332.124C95.3131 332.124 100.721 351.972 101.326 356.283C101.932 360.594 103.947 360.516 105.238 360.618C106.53 360.719 107.921 361.066 108.412 359.328C108.894 357.708 110.393 358.181 110.393 358.181C110.393 358.181 111.783 358.528 117.908 358.773C124.15 359.028 129.382 349.611 131.029 348.201C132.676 346.791 132.83 346.329 132.954 343.26C132.969 340.064 133.575 339.875 136.646 339.88C139.835 339.894 139.57 337.268 140.169 331.157C140.769 325.046 143.97 323.403 148.522 319.617C153.074 315.83 151.445 299.004 151.622 292.267C151.798 285.531 156.393 282.695 156.393 282.695C156.393 282.695 172.505 262.647 178.243 257.296C183.982 251.945 175.298 252.682 175.298 252.682C175.298 252.682 167.412 252.298 163.809 251.541C160.197 250.901 156.925 242.945 155.321 240.806C153.717 238.666 149.885 234.812 149.505 230.637C149.125 226.462 147.895 222.575 147.895 222.575C147.608 221.724 144.147 217.661 144.03 213.152C143.761 203.064 146.907 211.128 146.907 211.128C146.907 211.128 148.103 213.946 152.864 217.993C157.617 222.157 159.406 235.443 161.473 240.698C163.54 245.953 163.188 245.926 170.929 246.654C178.66 247.5 190.128 236.915 193.465 235.047C196.803 233.178 195.959 230.387 194.89 227.461C193.821 224.534 191.074 224.91 185.99 223.444C180.898 222.095 179.637 215.601 175.172 212.289C170.707 208.976 175.033 209.554 178.293 210.166C181.553 210.778 181.766 212.571 183.253 214.702C184.73 216.95 187.22 218.33 192.424 218.266C197.619 218.32 200.866 220.589 201.92 222.212C202.974 223.834 206.394 225.406 206.394 225.406C206.394 225.406 215.201 226.1 216.165 227.36C217.129 228.62 216.292 231.752 221.999 232.794C227.707 233.835 229.626 245.474 229.626 245.474C229.626 245.474 230.12 260.198 233.918 262.984C241.288 268.42 240.562 252.138 241.155 249.106C241.748 246.074 250.808 242.05 253.973 240.878C255.311 240.391 256.009 239.025 256.238 237.622C256.429 236.69 255.892 234.516 256.652 233.865C257.276 233.441 259.615 233.743 260.311 233.916C261.819 234.272 264.73 233.317 265.175 236.668C265.619 240.019 269.522 244.471 269.522 244.471C270.712 245.868 272.3 246.703 274.034 247.195C275.542 247.551 277.476 246.993 278.82 247.928C280.724 249.262 279.117 253.162 278.861 254.918C278.712 256.801 278.094 258.647 278.171 260.667C278.239 262.804 279.392 264.671 279.695 266.826C279.936 268.267 280.069 269.58 280.075 271.001C280.075 271.001 283.869 284.327 290.782 283.569C295.426 283.106 288.053 274.709 284.926 270.91C281.799 267.111 281.842 263.561 283.656 260.033C285.47 256.504 288.044 261.326 292.843 264.901C297.642 268.477 295.739 267.143 300.256 262.288C304.765 257.55 301.607 251.143 300.417 249.747C299.227 248.351 294.382 240.863 300.899 239.127C307.299 237.381 313.442 237.391 316.885 237.188C320.327 236.986 320.262 233.309 326.529 225.75C332.796 218.19 328.192 207.643 326.168 203.338C324.026 199.025 323.723 196.869 327.57 193.027C331.418 189.185 334.239 196.869 334.239 196.869C334.239 196.869 337.289 203.149 341.522 209.403C345.756 215.658 347.443 207.738 348.413 205.92C349.393 203.984 346.534 201.271 344.986 198.426C343.438 195.58 345.768 191.5 346.358 190.007C346.949 188.514 355.845 185.07 358.629 184.223C361.414 183.377 364.593 179.008 366.556 169.097C368.518 159.185 370.004 170.316 370.004 170.316C370.004 170.316 368.586 192.823 368.144 196.934C367.702 201.044 367.798 202.828 362.498 205.608C357.198 208.388 356.667 207.636 353.92 208.011C351.173 208.387 350.159 209.255 349.414 215.71C348.67 222.164 352.118 218.883 352.591 217.381C353.064 215.879 354.59 211.499 357.968 212.12C361.345 212.741 367.053 209.283 370.409 207.178C373.765 205.074 372.856 198.607 373.026 194.95C373.196 191.292 372.76 192.323 375.949 192.338C379.138 192.352 377.983 192.024 378.684 189.119C379.386 186.213 378.004 185.749 375.078 185.4C372.152 185.051 372.961 182.273 372.961 182.273C372.961 182.273 374.689 167.842 374.253 164.374C373.808 161.023 370.088 155.756 361.469 155.669C352.851 155.582 366.812 144.839 371.256 140.926C375.582 137.003 379.352 140.142 379.352 140.142C379.352 140.142 383.981 142.875 390.563 144.815C397.145 146.755 394.392 141.208 395.492 137.742C396.592 134.276 399.416 135.92 404.638 140.121C409.861 144.322 398.98 150.452 397.522 152.469C396.063 154.486 398.68 160.258 401.594 166.764C404.508 173.27 404.524 165.574 405.188 163.139C405.735 160.695 405.677 158.44 408.291 156.751C410.905 155.062 409.756 151.656 410.154 146.595C410.553 141.534 414.02 142.518 419.539 142.952C425.049 143.505 425.911 141.559 427.267 140.837C428.624 140.115 428.068 138.176 436.371 137.765C444.665 137.47 429.18 115.052 427.892 113.411C426.603 111.77 402.429 111.169 396.577 110.471C390.724 109.773 391.255 106.025 390.192 104.52C389.129 103.016 375.768 103.147 373.311 102.836C370.855 102.524 368.679 97.1415 366.584 96.7396C364.489 96.3378 363.5 98.3916 361.238 100.108C358.976 101.825 359.328 97.3524 359.242 95.4508C359.155 93.5491 357.91 92.8589 355.617 91.9678C353.324 91.0766 352.833 97.3145 352.549 99.4238C352.264 101.533 333.415 99.3379 329.784 98.9335C326.153 98.5291 325.294 94.4349 324.923 90.1423C324.552 85.8497 320.442 90.0262 320.442 90.0262L311.481 89.7941C311.481 89.7941 296.488 88.1395 292.449 88.4135C288.528 88.6968 292.829 83.5879 295.137 81.2828C297.455 78.8599 288.006 74.326 286.915 73.1742C285.824 72.0224 277.855 72.6974 276.257 71.9795C274.777 71.2707 273.807 68.5889 273.272 69.3758C272.737 70.1627 271.956 72.5881 270.092 73.744C268.229 74.9 266.622 74.2997 264.246 74.4678C261.869 74.6359 263.195 75.8062 255.247 74.7065C247.29 73.7245 246.521 78.9931 243.823 81.7413C241.008 84.4802 236.799 83.9119 234.794 83.8724C232.779 83.9505 233.168 88.0077 232.034 90.4054C230.9 92.803 227.587 86.8576 226.234 86.0404C224.89 85.1056 224.998 89.7327 224.998 89.7327C224.998 89.7327 223.805 103.376 223.107 104.742C222.408 106.109 218.873 93.9874 219.087 91.2804C219.417 88.5826 217.65 82.522 217.263 81.4258C216.985 80.4565 215.691 81.894 213.997 83.8923C212.304 85.8907 212.909 90.2017 212.325 93.1164C211.741 96.0311 210.218 94.3716 205.638 94.0109C201.059 93.6502 200.116 95.1155 198.098 96.733C196.081 98.3504 189.19 97.334 185.197 97.0195C181.205 96.705 179.032 98.7841 175.216 100.734C171.4 102.683 172.617 99.2262 170.519 95.8634C168.313 92.3737 167.064 97.723 165.587 99.9752C164.11 102.227 157.791 95.453 154.716 92.487C151.642 89.521 149.488 91.3647 147.726 91.2259C145.965 91.0872 143.913 91.6361 142.275 88.428C140.638 85.2199 135.678 85.1846 130.533 83.0029C125.388 80.8213 123.438 84.5758 117.644 86.1327C111.85 87.6896 110.182 90.8741 110.182 90.8741C110.182 90.8741 110.182 90.8741 109.579 94.0242C108.976 97.1743 104.823 100.4 102.116 103.266C99.4092 106.132 94.6937 105.997 91.9992 107.206C89.3046 108.415 90.4077 116.91 90.2562 120.333C90.114 123.637 95.701 121.709 99.2237 121.986C102.629 122.255 100.518 125.049 99.9375 126.424C99.6192 127.465 97.8764 127.091 97.4685 127.77C97.3418 127.878 97.3233 128.113 97.4129 128.476C97.7899 129.69 99.0074 130.733 99.6192 131.966C101.563 135.79 103.522 131.918 103.522 131.918C103.522 131.918 107.28 127.713 110.704 123.246C113.729 119.339 109.047 115.773 112.289 112.12C115.014 109.019 118.299 106.317 121.538 104.203C127.146 100.5 127.773 103.037 129.115 105.511C130.456 107.985 121.037 110.559 117.981 116.358C114.925 122.157 124.047 118.849 121.173 123.834C115.305 135.333 113.719 137.458 108.948 138.03ZM187.709 87.6248C189.251 89.0489 190.92 90.3646 192.715 91.5719C193.275 91.9712 195.846 93.8317 195.29 91.893C194.922 90.5614 193.967 89.1835 193.228 88.0595C191.751 85.8114 192.097 84.4176 192.32 81.5928C192.543 78.7681 198.364 76.8581 198.364 76.8581C218.5 68.733 199.99 72.7227 197.144 72.8539C194.424 72.8765 191.696 73.0169 190.25 73.3767C188.804 73.7365 185.336 77.2531 183.56 80.3107C183.016 81.2153 183.158 82.4107 183.436 83.3801C183.733 84.114 184.156 84.7395 184.823 85.2658C185.825 86.0552 186.943 86.8538 187.709 87.6248ZM160.53 318.668C158.911 319.724 158.976 323.401 158.367 329.629C158.228 331.395 159.476 344.046 162.755 339.923C162.764 339.805 167.084 334.461 167.452 331.292C167.829 328.006 170.789 324.923 172.022 322.77C173.255 320.617 172.9 317.629 171.049 312.627C169.198 307.626 165.975 315.544 165.975 315.544C165.168 316.783 162.149 317.611 160.53 318.668ZM282.525 292.393C284.021 294.405 285.507 296.536 287.003 298.548C287.75 299.555 288.498 300.561 289.246 301.567C290.111 302.583 291.211 303.617 291.588 304.831C291.965 306.045 291.718 307.683 292.583 308.699C293.34 309.588 294.632 309.689 295.698 309.655C300.287 309.898 304.848 310.494 309.545 310.864C336.553 312.991 316.269 309.499 315.113 309.171C313.958 308.843 311.445 309.237 309.344 307.414C307.243 305.59 297.107 305.266 297.107 305.266C297.107 305.266 293.575 305.106 294.277 302.2C294.978 299.295 293.551 299.419 289.673 291.653C285.795 283.887 285.621 289.084 279.142 281.349C272.662 273.615 276.431 281.254 277.618 284.19C278.805 287.126 281.688 291.024 281.688 291.024C281.885 291.513 282.201 292.012 282.525 292.393ZM320.926 298.378C320.336 299.871 320.224 301.284 321.939 302.011C325.153 303.211 324.649 302.106 328.104 300.246C328.719 299.939 330.564 299.019 330.511 298.186C330.45 297.47 328.923 297.35 328.364 296.951C327.814 296.434 327.273 295.799 326.569 295.743C325.638 295.552 324.699 295.478 323.75 295.521C322.567 295.547 321.952 295.853 321.525 296.767C321.253 297.22 321.09 297.799 320.926 298.378ZM310.586 296.143C311.643 296.226 312.817 296.318 313.911 295.931C314.879 295.652 315.531 294.874 316.282 294.341C317.657 293.383 317.984 292.225 318.312 291.067C319.267 287.944 319.301 284.512 319.551 281.335C319.996 275.685 319.091 276.68 318.337 274.252C317.969 272.92 313.856 274.136 312.11 275.301C310.364 276.466 311.127 278.776 310.88 280.415C310.713 282.533 308.572 282.72 307.079 283.668C305.216 284.824 303.461 286.107 301.705 287.39C299.453 288.989 301.301 291.029 302.092 292.987C302.289 293.476 302.595 294.092 303.037 294.482C303.804 295.253 304.851 295.454 305.781 295.646C305.899 295.655 305.899 295.655 306.016 295.664C307.533 295.902 309.06 296.022 310.586 296.143ZM331.541 271.621C332.224 273.451 333.259 275.309 334.186 277.04C334.699 278.028 335.87 279.659 337.118 278.81C338.738 277.753 338.543 275.725 338.663 274.195C338.942 270.664 339.702 265.513 338.487 262.93C337.156 260.338 334.449 258.704 332.873 256.211C331.603 254.335 330.41 254.478 329.168 247.748C327.808 241.009 327.746 249.294 327.069 253.386C326.393 257.478 329.891 261.069 329.891 261.069C332.35 264.342 330.292 267.969 331.541 271.621ZM357.741 306.489C359.141 306.717 360.396 307.29 361.243 308.541C362.306 310.046 362.528 311.721 363.347 313.325C363.851 314.431 364.679 315.917 366.233 315.684C367.679 315.324 369.2 314.023 370.253 315.646C371.73 317.894 372.626 317.017 372.626 317.017C373.124 316.701 376.94 314.751 378.59 316.302C388.148 325.463 384.295 318.883 381.971 315.384C379.647 311.885 373.452 306.542 370.748 303.368C368.044 300.194 361.851 302.312 358.601 301.582C355.35 300.853 356.638 297.993 355.035 295.854C353.431 293.714 346.219 295.278 344.64 294.324C343.061 293.371 342.266 292.953 342.442 290.717C342.47 290.364 341.998 287.366 341.092 288.361C340.703 288.804 340.836 290.117 340.789 290.705C340.715 291.647 340.641 292.588 340.684 293.539C340.86 295.803 342.696 295 345.492 296.997C348.298 298.876 349.123 301.902 349.516 304.42C349.828 306.457 352.303 306.534 354.2 306.447C355.384 306.421 356.567 306.396 357.741 306.489ZM366.823 395.195C366.245 395.031 365.08 394.821 364.789 395.509C364.499 396.197 365.726 397.122 365.679 397.711C365.605 398.652 365.138 401.576 367.938 402.034C370.62 402.482 371.22 400.871 372.02 398.21C372.175 397.749 372.212 397.278 372.014 396.789C371.708 396.172 370.895 395.99 370.308 395.944C369.731 395.78 369.143 395.733 368.448 395.56C367.87 395.396 367.401 395.359 366.823 395.195ZM340.205 325.122C337.007 325.225 333.913 326.995 331.092 328.312C329.257 329.115 327.285 330.144 326.306 332.08C325.471 333.672 325.366 336.506 324.992 338.253C324.473 340.344 319.102 338.026 316.961 338.213C314.82 338.399 315.357 340.573 314.597 341.224C313.719 341.865 310.849 340.81 308.346 341.087C305.364 341.444 306.365 346.734 305.972 348.716C305.58 350.699 304.718 352.644 304.091 354.608C302.854 358.3 305.113 358.123 306.918 359.212C308.723 360.302 306.535 365.577 306.655 368.547C306.794 371.282 310.113 374.149 312.27 375.266C313.741 376.093 315.647 375.888 317.291 376.017C319.17 376.165 321.04 376.431 322.838 376.099C324.637 375.767 326.039 374.456 327.649 373.517C330.137 371.936 332.785 371.316 335.702 371.783C338.737 372.258 341.645 372.843 344.688 373.201C346.332 373.33 349.197 372.964 349.5 375.119C349.731 376.677 349.367 378.307 349.599 379.864C350.043 383.215 352.367 382.214 355.068 382.427C357.769 382.64 357.719 384.767 358.266 386.824C359.172 390.329 361.656 390.288 364.709 390.529C366.823 390.695 368.936 390.862 371.059 390.91C374.727 390.844 377.246 387.371 377.246 387.371C377.246 387.371 382.709 379.512 385.317 376.401C387.925 373.29 389.449 365.95 389.903 360.182C390.357 354.415 383.012 345.665 383.012 345.665C383.012 345.665 373.374 331.524 371.653 329.375C369.932 327.226 371.301 324.847 370.772 322.555C370.361 320.273 368.313 323.783 366.27 324.214C364.228 324.645 364.654 332.732 364.561 333.909C364.469 335.086 362.021 334.656 360.859 332.907C359.697 331.157 358.848 331.446 357.052 330.238C355.257 329.031 354.24 326.938 354.256 323.741C354.389 320.554 351.017 321.355 347.269 320.941C343.521 320.527 344.955 321.824 344.092 323.77C343.521 325.027 342.102 325.034 340.919 325.059C340.566 325.032 340.322 325.131 340.205 325.122ZM415.103 407.762L414.976 407.87C413.564 409.299 409.281 414.172 411.601 414.71C413.805 415.239 416.521 416.756 418.051 415.336C419.599 413.682 419.24 412.233 423.597 410.918C425.776 410.26 428.047 403.926 428.047 403.926C428.047 403.926 427.528 401.516 426.23 399.993C425.139 398.841 422.006 402.621 420.866 403.597C418.975 405.106 416.759 406.234 415.103 407.762ZM434.954 397.246C435.97 394.839 437.62 396.39 437.759 394.624C437.899 392.859 432.982 389.274 431.341 387.605C428.05 384.386 430.847 390.882 429.895 392.465C428.69 394.265 428.573 394.256 429.218 396.557C429.407 397.164 429.771 400.035 430.34 400.317C433.653 401.762 433.928 399.77 434.954 397.246Z" stroke="#475566" stroke-opacity="0.3" stroke-width="2" mask="url(#path-2-inside-1_405_6491)"/>
<mask id="path-3-inside-2_405_6491" fill="white">
<path d="M-75.6163 217.642C-72.656 219.06 -79.2596 218.895 -80.3164 218.812C-81.4906 218.719 -83.1717 219.061 -83.6568 217.72C-83.6475 217.602 -83.7093 216.887 -83.6537 216.18C-83.5332 214.65 -84.3613 213.164 -81.4999 214.337C-79.3337 215.336 -77.322 216.798 -75.6163 217.642ZM430.636 387.55C427.345 384.33 430.142 390.827 429.19 392.41C427.985 394.21 427.868 394.201 428.513 396.502C428.702 397.109 429.067 399.98 429.635 400.261C432.83 401.697 433.232 399.597 434.249 397.19C435.265 394.784 436.915 396.335 437.054 394.569C437.194 392.804 432.395 389.228 430.636 387.55ZM-236.231 171.714C-236.231 171.714 -234.541 184.755 -231.324 184.417C-224.656 183.758 -229.254 179.132 -234.47 171.852C-234.893 171.227 -236.704 168.716 -236.231 171.714ZM37.6035 94.2766C36.1944 94.1656 34.8224 93.5838 33.2773 93.699C31.9671 93.8327 32.3163 95.3997 32.477 96.3598C32.7273 97.6822 32.8787 98.76 32.8941 100.064C32.8663 100.417 32.8292 100.888 32.8014 101.241C32.7272 102.182 32.5882 103.948 33.8798 104.05C35.7586 104.198 37.6467 104.228 39.5347 104.258C40.4834 104.214 41.5031 104.769 42.254 104.236C43.9907 103.188 44.8158 101.713 47.0746 101.536C48.0233 101.492 50.5696 102.167 50.7982 100.764C50.8446 100.175 50.6036 94.2347 49.7198 93.4545C47.7267 91.758 41.4692 94.6995 37.6035 94.2766ZM57.9237 142.301C61.4959 140.45 64.3327 135.937 64.3327 135.937C64.3327 135.937 65.7697 126.694 61.1993 130.716C61.1993 130.716 56.2335 133.759 55.9028 136.457C55.6803 139.282 54.3423 144.269 57.9237 142.301ZM184.245 85.1018C185.12 85.9997 186.238 86.7984 187.005 87.5693C188.547 88.9935 190.215 90.3092 192.011 91.5164C192.57 91.9157 195.141 93.7762 194.585 91.8376C194.217 90.5059 193.262 89.128 192.524 88.004C191.046 85.756 191.393 84.3621 191.615 81.5374C191.838 78.7126 197.659 76.8026 197.659 76.8026C217.795 68.6775 199.285 72.6673 196.439 72.7984C193.72 72.8211 190.991 72.9614 189.545 73.3212C188.099 73.681 184.631 77.1976 182.855 80.2552C182.311 81.1598 182.453 82.3553 182.731 83.3246C183.164 83.8324 183.704 84.4671 184.245 85.1018ZM66.7523 127.719C67.5186 128.49 68.2757 129.378 68.6713 130.357C69.1564 131.698 69.2707 133.246 69.5117 134.687C69.8949 137.322 68.1922 139.438 66.6348 141.21C65.2133 142.756 63.2851 144.736 65.5037 146.569C68.5073 148.937 73.0159 144.2 76.2358 142.322C78.7141 140.859 77.7716 137.824 76.5109 135.83C74.9535 133.102 73.016 130.699 72.1909 127.674C71.4741 124.775 69.6354 122.617 68.0595 120.124C66.8976 118.375 65.0806 118.942 64.135 121.947C63.3439 124.49 65.1115 126.05 66.7523 127.719ZM-109.589 206.44C-116.152 208.765 -104.429 209.925 -104.429 209.925C-102.099 210.346 -99.7686 210.766 -97.5839 211.53C-96.8979 211.821 -96.2026 211.994 -95.6433 212.394C-94.7503 213.056 -94.1292 214.171 -93.1002 214.607C-91.7374 215.307 -88.808 214.116 -87.3711 213.874C-81.2712 212.934 -96.833 206.497 -99.5955 205.569C-102.358 204.641 -103.026 204.115 -109.589 206.44ZM320.83 296.594C320.549 297.164 320.385 297.743 320.113 298.196C319.523 299.689 319.411 301.101 321.126 301.828C324.34 303.029 323.836 301.923 327.291 300.064C327.906 299.757 329.751 298.836 329.698 298.003C329.637 297.288 328.11 297.168 327.551 296.768C327.001 296.251 326.46 295.617 325.755 295.561C324.825 295.369 323.886 295.295 322.937 295.339C321.88 295.256 321.265 295.563 320.83 296.594ZM420.043 403.532C418.27 405.051 416.063 406.061 414.407 407.589L414.28 407.697C412.868 409.126 408.585 413.999 410.906 414.537C413.109 415.066 415.825 416.583 417.355 415.163C418.903 413.509 418.545 412.06 422.902 410.745C425.08 410.087 427.351 403.753 427.351 403.753C427.351 403.753 426.832 401.343 425.535 399.82C424.2 398.767 421.057 402.665 420.043 403.532ZM344.905 296.951C347.711 298.83 348.536 301.856 348.928 304.373C349.24 306.411 351.715 306.488 353.613 306.4C354.796 306.375 355.989 306.232 357.037 306.433C358.436 306.662 359.691 307.234 360.538 308.485C361.601 309.99 361.823 311.666 362.642 313.27C363.146 314.375 363.974 315.862 365.528 315.629C366.974 315.269 368.495 313.968 369.548 315.59C371.025 317.838 371.922 316.961 371.922 316.961C372.419 316.645 376.235 314.696 377.885 316.247C387.443 325.408 383.59 318.828 381.266 315.329C378.942 311.83 372.747 306.486 370.043 303.313C367.339 300.139 361.147 302.257 357.896 301.527C354.645 300.797 355.934 297.938 354.33 295.798C352.726 293.659 345.514 295.222 343.935 294.269C342.356 293.316 341.561 292.898 341.738 290.662C341.765 290.309 341.293 287.311 340.387 288.305C339.998 288.748 340.131 290.061 340.084 290.65C340.01 291.591 339.936 292.533 339.979 293.484C340.273 295.757 342.108 294.954 344.905 296.951ZM279.772 255.345C279.302 255.308 278.715 255.262 278.245 255.225C278.236 255.343 278.236 255.343 278.227 255.46C278.078 257.343 277.46 259.19 277.537 261.209C277.605 263.346 278.758 265.213 279.061 267.369C279.302 268.809 279.435 270.122 279.441 271.544C279.441 271.544 283.235 284.87 290.148 284.111C294.793 283.648 287.42 275.251 284.292 271.452C281.165 267.653 281.208 264.104 283.022 260.575C284.836 257.047 287.41 261.868 292.209 265.444C297.008 269.019 295.105 267.685 299.623 262.83C303.235 258.97 301.962 254.132 300.621 251.658C293.912 254.327 286.826 255.782 279.772 255.345ZM337.792 262.757C336.46 260.165 333.753 258.531 332.177 256.038C330.907 254.162 329.714 254.305 328.472 247.575C327.112 240.836 327.051 249.121 326.374 253.213C325.697 257.304 329.195 260.896 329.195 260.896C331.645 264.286 329.587 267.914 330.953 271.574C331.636 273.405 332.671 275.263 333.598 276.994C334.111 277.981 335.282 279.613 336.531 278.764C338.15 277.707 337.955 275.679 338.076 274.149C338.373 270.382 339.015 265.222 337.792 262.757ZM306.384 283.495C304.52 284.651 302.765 285.934 301.01 287.217C298.757 288.816 300.605 290.856 301.396 292.813C301.594 293.303 301.9 293.919 302.342 294.309C303.108 295.08 304.155 295.281 305.086 295.473C305.203 295.482 305.203 295.482 305.32 295.491C306.838 295.729 308.364 295.849 309.891 295.97C310.948 296.053 312.122 296.145 313.216 295.758C314.183 295.479 314.835 294.701 315.586 294.168C316.961 293.21 317.289 292.052 317.616 290.893C318.571 287.771 318.605 284.339 318.855 281.162C319.3 275.512 318.395 276.507 317.641 274.079C317.273 272.747 313.16 273.963 311.414 275.128C309.668 276.293 310.432 278.603 310.184 280.242C310.018 282.36 307.876 282.547 306.384 283.495ZM314.408 309.115C313.243 308.905 310.74 309.182 308.639 307.358C306.538 305.535 296.402 305.21 296.402 305.21C296.402 305.21 292.87 305.051 293.572 302.145C294.273 299.24 292.846 299.364 288.968 291.598C285.09 283.831 284.917 289.028 278.437 281.294C271.957 273.56 275.727 281.199 276.913 284.135C278.1 287.07 280.983 290.969 280.983 290.969C281.298 291.467 281.622 291.848 281.938 292.347C283.433 294.359 284.92 296.49 286.415 298.502C287.163 299.509 287.911 300.515 288.658 301.521C289.524 302.537 290.624 303.571 291.001 304.785C291.378 305.999 291.131 307.637 291.996 308.653C292.753 309.542 294.045 309.643 295.111 309.609C299.699 309.852 304.26 310.448 308.957 310.818C335.739 312.809 315.573 309.326 314.408 309.115ZM165.171 315.244C164.463 316.727 161.454 317.438 159.834 318.494C158.215 319.551 158.28 323.228 157.671 329.456C157.532 331.222 158.781 343.873 162.059 339.75C162.068 339.632 166.388 334.288 166.756 331.119C167.133 327.833 170.094 324.75 171.327 322.597C172.56 320.444 172.204 317.455 170.353 312.454C168.502 307.453 165.171 315.244 165.171 315.244Z"/>
</mask>
<path d="M-75.6163 217.642C-72.656 219.06 -79.2596 218.895 -80.3164 218.812C-81.4906 218.719 -83.1717 219.061 -83.6568 217.72C-83.6475 217.602 -83.7093 216.887 -83.6537 216.18C-83.5332 214.65 -84.3613 213.164 -81.4999 214.337C-79.3337 215.336 -77.322 216.798 -75.6163 217.642ZM430.636 387.55C427.345 384.33 430.142 390.827 429.19 392.41C427.985 394.21 427.868 394.201 428.513 396.502C428.702 397.109 429.067 399.98 429.635 400.261C432.83 401.697 433.232 399.597 434.249 397.19C435.265 394.784 436.915 396.335 437.054 394.569C437.194 392.804 432.395 389.228 430.636 387.55ZM-236.231 171.714C-236.231 171.714 -234.541 184.755 -231.324 184.417C-224.656 183.758 -229.254 179.132 -234.47 171.852C-234.893 171.227 -236.704 168.716 -236.231 171.714ZM37.6035 94.2766C36.1944 94.1656 34.8224 93.5838 33.2773 93.699C31.9671 93.8327 32.3163 95.3997 32.477 96.3598C32.7273 97.6822 32.8787 98.76 32.8941 100.064C32.8663 100.417 32.8292 100.888 32.8014 101.241C32.7272 102.182 32.5882 103.948 33.8798 104.05C35.7586 104.198 37.6467 104.228 39.5347 104.258C40.4834 104.214 41.5031 104.769 42.254 104.236C43.9907 103.188 44.8158 101.713 47.0746 101.536C48.0233 101.492 50.5696 102.167 50.7982 100.764C50.8446 100.175 50.6036 94.2347 49.7198 93.4545C47.7267 91.758 41.4692 94.6995 37.6035 94.2766ZM57.9237 142.301C61.4959 140.45 64.3327 135.937 64.3327 135.937C64.3327 135.937 65.7697 126.694 61.1993 130.716C61.1993 130.716 56.2335 133.759 55.9028 136.457C55.6803 139.282 54.3423 144.269 57.9237 142.301ZM184.245 85.1018C185.12 85.9997 186.238 86.7984 187.005 87.5693C188.547 88.9935 190.215 90.3092 192.011 91.5164C192.57 91.9157 195.141 93.7762 194.585 91.8376C194.217 90.5059 193.262 89.128 192.524 88.004C191.046 85.756 191.393 84.3621 191.615 81.5374C191.838 78.7126 197.659 76.8026 197.659 76.8026C217.795 68.6775 199.285 72.6673 196.439 72.7984C193.72 72.8211 190.991 72.9614 189.545 73.3212C188.099 73.681 184.631 77.1976 182.855 80.2552C182.311 81.1598 182.453 82.3553 182.731 83.3246C183.164 83.8324 183.704 84.4671 184.245 85.1018ZM66.7523 127.719C67.5186 128.49 68.2757 129.378 68.6713 130.357C69.1564 131.698 69.2707 133.246 69.5117 134.687C69.8949 137.322 68.1922 139.438 66.6348 141.21C65.2133 142.756 63.2851 144.736 65.5037 146.569C68.5073 148.937 73.0159 144.2 76.2358 142.322C78.7141 140.859 77.7716 137.824 76.5109 135.83C74.9535 133.102 73.016 130.699 72.1909 127.674C71.4741 124.775 69.6354 122.617 68.0595 120.124C66.8976 118.375 65.0806 118.942 64.135 121.947C63.3439 124.49 65.1115 126.05 66.7523 127.719ZM-109.589 206.44C-116.152 208.765 -104.429 209.925 -104.429 209.925C-102.099 210.346 -99.7686 210.766 -97.5839 211.53C-96.8979 211.821 -96.2026 211.994 -95.6433 212.394C-94.7503 213.056 -94.1292 214.171 -93.1002 214.607C-91.7374 215.307 -88.808 214.116 -87.3711 213.874C-81.2712 212.934 -96.833 206.497 -99.5955 205.569C-102.358 204.641 -103.026 204.115 -109.589 206.44ZM320.83 296.594C320.549 297.164 320.385 297.743 320.113 298.196C319.523 299.689 319.411 301.101 321.126 301.828C324.34 303.029 323.836 301.923 327.291 300.064C327.906 299.757 329.751 298.836 329.698 298.003C329.637 297.288 328.11 297.168 327.551 296.768C327.001 296.251 326.46 295.617 325.755 295.561C324.825 295.369 323.886 295.295 322.937 295.339C321.88 295.256 321.265 295.563 320.83 296.594ZM420.043 403.532C418.27 405.051 416.063 406.061 414.407 407.589L414.28 407.697C412.868 409.126 408.585 413.999 410.906 414.537C413.109 415.066 415.825 416.583 417.355 415.163C418.903 413.509 418.545 412.06 422.902 410.745C425.08 410.087 427.351 403.753 427.351 403.753C427.351 403.753 426.832 401.343 425.535 399.82C424.2 398.767 421.057 402.665 420.043 403.532ZM344.905 296.951C347.711 298.83 348.536 301.856 348.928 304.373C349.24 306.411 351.715 306.488 353.613 306.4C354.796 306.375 355.989 306.232 357.037 306.433C358.436 306.662 359.691 307.234 360.538 308.485C361.601 309.99 361.823 311.666 362.642 313.27C363.146 314.375 363.974 315.862 365.528 315.629C366.974 315.269 368.495 313.968 369.548 315.59C371.025 317.838 371.922 316.961 371.922 316.961C372.419 316.645 376.235 314.696 377.885 316.247C387.443 325.408 383.59 318.828 381.266 315.329C378.942 311.83 372.747 306.486 370.043 303.313C367.339 300.139 361.147 302.257 357.896 301.527C354.645 300.797 355.934 297.938 354.33 295.798C352.726 293.659 345.514 295.222 343.935 294.269C342.356 293.316 341.561 292.898 341.738 290.662C341.765 290.309 341.293 287.311 340.387 288.305C339.998 288.748 340.131 290.061 340.084 290.65C340.01 291.591 339.936 292.533 339.979 293.484C340.273 295.757 342.108 294.954 344.905 296.951ZM279.772 255.345C279.302 255.308 278.715 255.262 278.245 255.225C278.236 255.343 278.236 255.343 278.227 255.46C278.078 257.343 277.46 259.19 277.537 261.209C277.605 263.346 278.758 265.213 279.061 267.369C279.302 268.809 279.435 270.122 279.441 271.544C279.441 271.544 283.235 284.87 290.148 284.111C294.793 283.648 287.42 275.251 284.292 271.452C281.165 267.653 281.208 264.104 283.022 260.575C284.836 257.047 287.41 261.868 292.209 265.444C297.008 269.019 295.105 267.685 299.623 262.83C303.235 258.97 301.962 254.132 300.621 251.658C293.912 254.327 286.826 255.782 279.772 255.345ZM337.792 262.757C336.46 260.165 333.753 258.531 332.177 256.038C330.907 254.162 329.714 254.305 328.472 247.575C327.112 240.836 327.051 249.121 326.374 253.213C325.697 257.304 329.195 260.896 329.195 260.896C331.645 264.286 329.587 267.914 330.953 271.574C331.636 273.405 332.671 275.263 333.598 276.994C334.111 277.981 335.282 279.613 336.531 278.764C338.15 277.707 337.955 275.679 338.076 274.149C338.373 270.382 339.015 265.222 337.792 262.757ZM306.384 283.495C304.52 284.651 302.765 285.934 301.01 287.217C298.757 288.816 300.605 290.856 301.396 292.813C301.594 293.303 301.9 293.919 302.342 294.309C303.108 295.08 304.155 295.281 305.086 295.473C305.203 295.482 305.203 295.482 305.32 295.491C306.838 295.729 308.364 295.849 309.891 295.97C310.948 296.053 312.122 296.145 313.216 295.758C314.183 295.479 314.835 294.701 315.586 294.168C316.961 293.21 317.289 292.052 317.616 290.893C318.571 287.771 318.605 284.339 318.855 281.162C319.3 275.512 318.395 276.507 317.641 274.079C317.273 272.747 313.16 273.963 311.414 275.128C309.668 276.293 310.432 278.603 310.184 280.242C310.018 282.36 307.876 282.547 306.384 283.495ZM314.408 309.115C313.243 308.905 310.74 309.182 308.639 307.358C306.538 305.535 296.402 305.21 296.402 305.21C296.402 305.21 292.87 305.051 293.572 302.145C294.273 299.24 292.846 299.364 288.968 291.598C285.09 283.831 284.917 289.028 278.437 281.294C271.957 273.56 275.727 281.199 276.913 284.135C278.1 287.07 280.983 290.969 280.983 290.969C281.298 291.467 281.622 291.848 281.938 292.347C283.433 294.359 284.92 296.49 286.415 298.502C287.163 299.509 287.911 300.515 288.658 301.521C289.524 302.537 290.624 303.571 291.001 304.785C291.378 305.999 291.131 307.637 291.996 308.653C292.753 309.542 294.045 309.643 295.111 309.609C299.699 309.852 304.26 310.448 308.957 310.818C335.739 312.809 315.573 309.326 314.408 309.115ZM165.171 315.244C164.463 316.727 161.454 317.438 159.834 318.494C158.215 319.551 158.28 323.228 157.671 329.456C157.532 331.222 158.781 343.873 162.059 339.75C162.068 339.632 166.388 334.288 166.756 331.119C167.133 327.833 170.094 324.75 171.327 322.597C172.56 320.444 172.204 317.455 170.353 312.454C168.502 307.453 165.171 315.244 165.171 315.244Z" stroke="#475566" stroke-opacity="0.5" stroke-width="2" mask="url(#path-3-inside-2_405_6491)"/>
</g>
<defs>
<clipPath id="clip0_405_6491">
<rect width="754" height="437" fill="white" transform="matrix(1 0 -0.000370894 1 -66.8379 0)"/>
</clipPath>
</defs>
</svg>
