<svg width="68" height="90" viewBox="0 0 68 90" fill="none" xmlns="http://www.w3.org/2000/svg">
<g clip-path="url(#clip0_405_5266)" filter="url(#filter0_d_405_5266)">
<path opacity="0.08" d="M36.9647 54.0659C21.8893 54.0659 9.72852 42.0513 9.72852 27.1331C9.72852 12.1148 21.8893 0 36.9647 0C51.9396 0 63.9999 12.1148 63.9999 27.1331C63.9999 42.0513 51.9396 54.0659 36.9647 54.0659Z" fill="#BCC9DA"/>
<path d="M28.1206 82C14.8543 82 4 71.2869 4 58.1709C4 44.9548 14.8543 34.1416 28.1206 34.1416C41.2864 34.1416 52.0402 44.9548 52.0402 58.1709C52.0402 71.2869 41.2864 82 28.1206 82ZM28.1206 35.5433C15.7588 35.5433 5.30653 45.956 5.30653 58.271C5.30653 70.6862 15.5578 80.6984 28.1206 80.6984C40.5829 80.6984 50.6332 70.5861 50.6332 58.271C50.6332 45.7558 40.4824 35.5433 28.1206 35.5433Z" fill="#F3F3F3"/>
<path d="M28.0201 68.0832C24.1005 68.0832 20.3819 65.6803 19.0754 62.0759C18.9749 61.7755 18.9749 61.6754 19.0754 61.4752C19.1759 61.1748 19.3769 61.1748 19.5779 61.1748C19.6784 61.1748 19.6784 61.1748 19.8794 61.1748C20.2814 61.1748 20.4824 61.4752 20.6834 61.6754C21.6884 64.6791 24.804 66.5814 28.0201 66.5814C31.2362 66.5814 34.2513 64.579 35.3568 61.6754C35.4573 61.2749 35.7588 61.1748 36.1608 61.1748C36.2613 61.1748 36.2613 61.1748 36.4623 61.1748C36.7638 61.2749 36.8643 61.4752 36.9648 61.4752C37.0653 61.7755 37.0653 61.8757 36.9648 62.0759C35.5578 65.5802 32.0402 68.0832 28.0201 68.0832Z" fill="#9FCCFF"/>
<path d="M22.4929 52.0637C21.6889 52.0637 20.9854 51.3629 20.9854 50.5619C20.9854 49.7609 21.6889 49.0601 22.4929 49.0601C23.2969 49.0601 24.0004 49.7609 24.0004 50.5619C24.0004 51.463 23.2969 52.0637 22.4929 52.0637Z" fill="#9FCCFF"/>
<path d="M33.5476 52.0637C32.7436 52.0637 32.04 51.3629 32.04 50.5619C32.04 49.7609 32.7436 49.0601 33.5476 49.0601C34.3516 49.0601 35.0551 49.7609 35.0551 50.5619C35.0551 51.463 34.4521 52.0637 33.5476 52.0637Z" fill="#9FCCFF"/>
</g>
<defs>
<filter id="filter0_d_405_5266" x="0" y="0" width="68" height="90" filterUnits="userSpaceOnUse" color-interpolation-filters="sRGB">
<feFlood flood-opacity="0" result="BackgroundImageFix"/>
<feColorMatrix in="SourceAlpha" type="matrix" values="0 0 0 0 0 0 0 0 0 0 0 0 0 0 0 0 0 0 127 0" result="hardAlpha"/>
<feOffset dy="4"/>
<feGaussianBlur stdDeviation="2"/>
<feComposite in2="hardAlpha" operator="out"/>
<feColorMatrix type="matrix" values="0 0 0 0 0 0 0 0 0 0 0 0 0 0 0 0 0 0 0.25 0"/>
<feBlend mode="normal" in2="BackgroundImageFix" result="effect1_dropShadow_405_5266"/>
<feBlend mode="normal" in="SourceGraphic" in2="effect1_dropShadow_405_5266" result="shape"/>
</filter>
<clipPath id="clip0_405_5266">
<rect width="60" height="82" fill="white" transform="translate(4)"/>
</clipPath>
</defs>
</svg>
