<svg width="240" height="373" viewBox="0 0 240 373" fill="none" xmlns="http://www.w3.org/2000/svg">
<g opacity="0.4">
<path d="M12.4891 36.8135L17.5965 31.0577C17.814 30.8175 18.0615 30.7331 18.3142 30.7611C18.5369 30.6333 18.8341 30.6358 19.0918 30.7762L25.8728 34.15C26.1057 34.2469 26.2299 34.4639 26.2847 34.6631L26.7041 36.844C26.7992 37.4237 26.2056 37.9373 25.5564 37.7332L19.4381 36.862L14.0295 40.0232C13.5447 40.4167 12.7817 40.2203 12.6618 39.5972L12.2424 37.4163C12.2569 37.235 12.2912 36.9847 12.4891 36.8135Z" fill="#475566"/>
<path d="M15.5134 13.4569C15.8106 13.4593 16.2962 13.5843 16.5985 13.6991L32.9687 20.392C33.271 20.5068 33.5142 20.8285 33.6186 21.1145L34.0022 22.5088C34.1067 22.7948 33.8891 23.035 33.5919 23.0325L17.1638 23.58C16.8666 23.5775 16.3912 23.6773 16.0992 23.7872L0.8088 29.7358C0.516741 29.8457 0.258961 29.7053 0.243582 29.3682L0.122914 28.2267C0.0629793 27.9151 0.250584 27.5192 0.468133 27.279L14.1028 14.0933C14.3204 13.8531 14.6964 13.5797 14.9885 13.4698L15.5134 13.4569Z" fill="#475566"/>
<path d="M28.2445 21.0271L30.8044 20.5383L30.3448 17.977C30.2446 17.2849 29.6305 17.3489 28.9274 17.4641C28.2243 17.5793 27.6847 17.7736 27.7848 18.4657L28.2445 21.0271Z" fill="#475566"/>
<path d="M22.9811 18.8582L25.541 18.3695L25.0813 15.8081C24.9812 15.116 24.3671 15.18 23.6639 15.2952C22.9608 15.4104 22.4213 15.6047 22.5214 16.2968L22.9811 18.8582Z" fill="#475566"/>
<path d="M5.69082 25.5507L3.1309 26.0394L2.67122 23.478C2.57109 22.786 3.11065 22.5917 3.81378 22.4765C4.51692 22.3613 5.10616 22.2538 5.23113 22.9893L5.69082 25.5507Z" fill="#475566"/>
<path d="M9.77039 21.3072L7.21047 21.7959L6.75077 19.2345C6.65062 18.5424 7.19534 18.4605 7.89849 18.3453C8.60161 18.2301 9.14119 18.0358 9.3107 18.7457L9.77039 21.3072Z" fill="#475566"/>
<path d="M17.3573 33.3282L19.5218 39.6968C19.6066 40.0518 19.9586 40.2535 20.3448 40.2048C20.7063 40.1127 20.9881 39.778 20.9033 39.4231L20.7095 32.6732C20.5545 31.7819 19.2972 32.2727 18.9358 32.3648C18.505 32.439 17.1579 32.4625 17.3573 33.3282Z" fill="#475566"/>
<path d="M10.8676 10.2994L16.8099 34.8531C16.9846 35.6754 17.7382 36.1654 18.4859 36.0247L20.5011 35.6179C21.2488 35.4771 21.7627 34.721 21.6771 33.8476C21.6771 33.8476 18.6467 9.0068 18.6116 8.73864C18.431 7.28553 17.9532 5.82998 17.2776 4.5456C16.9051 3.89449 16.4881 3.26894 16.0068 2.73791C15.1385 1.73711 13.7238 -0.218688 12.3294 1.27332C11.3059 2.37954 10.8929 4.34618 10.6821 5.7356C10.4319 7.26294 10.4789 8.79271 10.8676 10.2994Z" fill="#475566"/>
<path d="M184.992 360.165C185.275 360.349 185.661 360.3 185.854 360.016C186.046 359.733 186.006 359.352 185.723 359.168C185.084 358.671 184.399 358.198 183.76 357.701C183.477 357.517 183.091 357.566 182.898 357.849C182.705 358.133 182.746 358.513 182.984 358.723C183.643 359.151 184.327 359.624 184.992 360.165ZM189.053 363.024C189.737 363.496 190.421 363.968 191.106 364.44C191.388 364.624 191.775 364.575 191.967 364.292C192.16 364.008 192.095 363.584 191.837 363.444C191.153 362.972 190.493 362.543 189.809 362.071C189.527 361.887 189.14 361.936 188.948 362.219C188.661 362.441 188.745 362.796 189.053 363.024ZM179.14 355.623C179.423 355.807 179.765 355.784 180.002 355.475C180.22 355.235 180.199 354.785 179.916 354.602C179.277 354.104 178.612 353.563 178.017 353.039C177.754 352.787 177.368 352.835 177.131 353.144C176.913 353.385 176.909 353.791 177.216 354.018C177.811 354.541 178.476 355.082 179.14 355.623ZM195.226 367.092C195.955 367.539 196.639 368.011 197.343 368.414C197.625 368.598 198.031 368.481 198.224 368.197C198.417 367.913 198.352 367.49 198.025 367.331C197.321 366.928 196.636 366.456 195.932 366.053C195.65 365.869 195.244 365.986 195.051 366.27C194.858 366.554 194.943 366.909 195.226 367.092ZM201.572 370.946C201.572 370.946 201.596 370.99 201.641 370.964C202.345 371.367 203.074 371.814 203.822 372.192C204.105 372.376 204.511 372.258 204.679 371.931C204.871 371.647 204.762 371.249 204.435 371.091C203.731 370.688 203.027 370.284 202.298 369.838C202.015 369.654 201.609 369.772 201.417 370.055C201.204 370.408 201.289 370.763 201.572 370.946ZM173.506 350.842C173.789 351.026 174.131 351.003 174.348 350.763C174.566 350.522 174.57 350.116 174.307 349.864C173.687 349.297 173.092 348.774 172.472 348.207C172.234 347.997 171.823 348.003 171.605 348.243C171.343 348.509 171.383 348.889 171.621 349.098C172.241 349.665 172.837 350.189 173.457 350.755C173.437 350.824 173.481 350.799 173.506 350.842ZM168.11 345.752C168.323 345.917 168.709 345.869 168.907 345.698C169.169 345.432 169.129 345.051 168.935 344.817C168.36 344.224 167.784 343.632 167.234 343.083C167.04 342.848 166.604 342.81 166.342 343.076C166.08 343.341 166.051 343.704 166.314 343.957C166.889 344.549 167.465 345.141 168.04 345.734C168.04 345.734 168.04 345.734 168.11 345.752ZM162.975 340.395C163.188 340.561 163.53 340.538 163.772 340.341C164.059 340.119 164.063 339.713 163.8 339.46C163.27 338.842 162.694 338.25 162.163 337.632C161.945 337.354 161.534 337.359 161.291 337.556C161.004 337.778 161 338.184 161.194 338.419C161.725 339.037 162.255 339.655 162.831 340.247C162.905 340.377 162.975 340.395 162.975 340.395ZM158.216 334.766C158.429 334.932 158.727 334.934 158.969 334.737C159.256 334.515 159.285 334.152 159.067 333.874C158.58 333.231 158.049 332.613 157.538 331.926C157.32 331.648 156.953 331.627 156.641 331.806C156.354 332.029 156.325 332.391 156.499 332.695C156.986 333.339 157.497 334.025 158.028 334.643C158.122 334.704 158.147 334.748 158.216 334.766ZM153.789 328.888C154.002 329.054 154.299 329.057 154.497 328.885C154.784 328.663 154.858 328.275 154.664 328.04C154.222 327.371 153.711 326.684 153.269 326.015C153.051 325.737 152.704 325.648 152.417 325.87C152.105 326.049 152.032 326.437 152.25 326.715C152.692 327.384 153.159 328.097 153.645 328.74C153.67 328.784 153.695 328.827 153.789 328.888ZM149.713 322.694C149.901 322.816 150.154 322.844 150.376 322.717C150.688 322.538 150.762 322.15 150.588 321.846L150.464 321.629C150.091 320.978 149.699 320.395 149.327 319.744C149.153 319.44 148.762 319.377 148.494 319.53C148.183 319.709 148.109 320.097 148.258 320.358C148.63 321.009 148.978 321.616 149.395 322.242L149.519 322.459C149.594 322.589 149.643 322.676 149.713 322.694ZM146.107 316.288C146.295 316.41 146.548 316.438 146.771 316.31C147.082 316.131 147.225 315.761 147.052 315.457C146.699 314.737 146.321 313.974 145.968 313.254C145.795 312.95 145.423 312.817 145.156 312.97C144.844 313.149 144.701 313.52 144.85 313.78C145.203 314.5 145.58 315.264 145.933 315.984C145.963 316.139 146.057 316.201 146.107 316.288ZM142.966 309.557C143.154 309.679 143.363 309.733 143.585 309.605C143.922 309.469 144.065 309.099 143.936 308.77C143.627 308.024 143.319 307.278 142.986 306.489C142.857 306.16 142.485 306.027 142.193 306.137C141.856 306.273 141.713 306.643 141.818 306.929C142.126 307.675 142.459 308.464 142.767 309.209C142.822 309.408 142.872 309.495 142.966 309.557ZM140.365 302.631C140.553 302.754 140.737 302.764 140.939 302.705C141.276 302.57 141.444 302.243 141.315 301.913C141.051 301.142 140.787 300.371 140.568 299.574C140.483 299.219 140.112 299.087 139.795 299.153C139.458 299.289 139.29 299.616 139.35 299.927C139.569 300.724 139.833 301.495 140.122 302.31C140.176 302.509 140.271 302.57 140.365 302.631ZM138.214 295.563C138.333 295.668 138.541 295.721 138.744 295.662C139.106 295.57 139.274 295.243 139.189 294.888C138.97 294.092 138.82 293.313 138.601 292.516C138.516 292.161 138.189 292.003 137.872 292.069C137.51 292.161 137.343 292.488 137.402 292.8C137.577 293.622 137.796 294.419 138.015 295.216C138.045 295.371 138.12 295.502 138.214 295.563ZM136.672 288.318C136.791 288.423 136.975 288.433 137.158 288.443C137.475 288.376 137.712 288.067 137.672 287.687C137.522 286.908 137.392 286.06 137.287 285.256C137.227 284.944 136.919 284.717 136.578 284.74C136.261 284.807 136.023 285.116 136.039 285.453C136.144 286.257 136.319 287.079 136.449 287.927C136.434 288.109 136.578 288.257 136.672 288.318ZM107.331 266.294C107.614 266.477 108 266.429 108.193 266.145C108.385 265.862 108.345 265.481 108.063 265.297C107.378 264.825 106.739 264.327 106.099 263.83C105.816 263.646 105.43 263.694 105.212 263.935C105.02 264.218 105.06 264.599 105.298 264.808C105.982 265.28 106.647 265.821 107.331 266.294ZM111.367 269.109C112.051 269.581 112.78 270.028 113.464 270.5C113.747 270.684 114.153 270.566 114.346 270.283C114.538 269.999 114.454 269.644 114.146 269.417C113.487 268.988 112.758 268.542 112.074 268.069C111.791 267.886 111.405 267.934 111.212 268.218C111.044 268.545 111.085 268.925 111.367 269.109ZM101.479 261.752C101.762 261.936 102.104 261.913 102.321 261.673C102.539 261.433 102.543 261.027 102.236 260.799C101.641 260.276 100.976 259.735 100.381 259.212C100.118 258.959 99.7317 259.008 99.4696 259.273C99.2521 259.513 99.2478 259.919 99.5107 260.172C100.195 260.644 100.79 261.168 101.479 261.752C101.455 261.709 101.455 261.709 101.479 261.752ZM117.693 273.032C117.693 273.032 117.718 273.076 117.763 273.05C118.467 273.453 119.24 273.874 119.944 274.278C120.227 274.461 120.632 274.344 120.8 274.017C120.993 273.733 120.884 273.335 120.556 273.177C119.852 272.773 119.104 272.396 118.4 271.992C118.117 271.809 117.711 271.926 117.519 272.21C117.37 272.468 117.411 272.848 117.693 273.032ZM95.9739 256.782C96.1871 256.948 96.5734 256.899 96.8158 256.702C97.0779 256.437 97.0376 256.056 96.7996 255.847C96.2241 255.255 95.6289 254.731 95.0535 254.139C94.7905 253.886 94.424 253.866 94.1619 254.132C93.8998 254.397 93.8707 254.76 94.1336 255.013C94.709 255.605 95.2845 256.197 95.9045 256.764L95.9739 256.782ZM124.252 276.534C124.276 276.577 124.321 276.552 124.346 276.595C125.094 276.973 125.843 277.35 126.611 277.659C126.938 277.817 127.319 277.656 127.443 277.355C127.61 277.028 127.456 276.655 127.154 276.54C126.43 276.206 125.682 275.828 124.933 275.451C124.606 275.292 124.27 275.428 124.077 275.711C123.909 276.038 124.014 276.324 124.252 276.534ZM90.864 251.469C91.0773 251.635 91.419 251.612 91.6613 251.415C91.9483 251.193 91.9526 250.787 91.7342 250.508C91.2033 249.891 90.6724 249.273 90.1414 248.655C89.9231 248.377 89.512 248.382 89.2696 248.579C88.9827 248.801 88.9783 249.207 89.1719 249.442C89.7028 250.06 90.2586 250.721 90.7895 251.339C90.7698 251.408 90.8392 251.426 90.864 251.469ZM131.017 279.57C131.042 279.614 131.111 279.632 131.111 279.632C131.88 279.94 132.648 280.249 133.416 280.558C133.718 280.673 134.099 280.512 134.223 280.21C134.346 279.909 134.192 279.536 133.89 279.421C133.121 279.112 132.353 278.804 131.585 278.495C131.283 278.38 130.902 278.541 130.778 278.843C130.699 279.118 130.804 279.404 131.017 279.57ZM86.1696 245.745C86.3828 245.911 86.68 245.913 86.9224 245.717C87.2093 245.494 87.283 245.106 87.0646 244.828C86.5782 244.184 86.0918 243.541 85.6251 242.829C85.4067 242.55 85.0154 242.487 84.773 242.683C84.486 242.906 84.4124 243.294 84.6059 243.529C85.0923 244.172 85.559 244.884 86.0454 245.528C86.0753 245.684 86.1447 245.702 86.1696 245.745ZM135.675 280.991C135.794 281.096 135.933 281.132 136.091 281.098C136.433 281.075 136.67 280.766 136.655 280.429C136.594 279.599 136.489 278.795 136.453 278.008C136.438 277.671 136.13 277.444 135.789 277.467C135.447 277.49 135.165 277.825 135.225 278.136C135.286 278.966 135.346 279.796 135.407 280.626C135.457 280.713 135.556 280.886 135.675 280.991ZM138.059 282.16C138.084 282.203 138.154 282.221 138.223 282.239C139.011 282.479 139.824 282.762 140.611 283.002C140.958 283.091 141.27 282.912 141.393 282.611C141.492 282.266 141.318 281.962 141.016 281.847C140.228 281.608 139.44 281.368 138.652 281.128C138.35 281.013 137.969 281.174 137.87 281.519C137.742 281.708 137.802 282.02 138.059 282.16ZM81.9847 239.671C82.1731 239.793 82.4703 239.796 82.693 239.668C83.0047 239.489 83.0784 239.101 82.9046 238.797C82.4627 238.128 82.0406 237.39 81.6432 236.696C81.4694 236.392 81.078 236.328 80.8108 236.481C80.499 236.66 80.4253 237.048 80.5743 237.309C80.9965 238.047 81.4384 238.716 81.8605 239.454C81.8656 239.566 81.935 239.584 81.9847 239.671ZM145.24 284.267C145.309 284.285 145.359 284.372 145.472 284.364C146.305 284.578 147.113 284.749 147.945 284.963C148.292 285.052 148.623 284.805 148.702 284.529C148.801 284.184 148.557 283.862 148.235 283.816C147.428 283.645 146.595 283.431 145.832 283.235C145.485 283.146 145.129 283.35 145.075 283.669C144.947 283.858 145.026 284.101 145.24 284.267ZM78.354 233.221C78.5424 233.343 78.795 233.371 79.0177 233.244C79.3295 233.065 79.4725 232.694 79.2987 232.391C78.9459 231.67 78.5683 230.907 78.2155 230.187C78.0862 229.857 77.67 229.75 77.4028 229.904C77.0662 230.039 76.948 230.453 77.097 230.713C77.4497 231.433 77.8273 232.197 78.1801 232.917C78.2101 233.073 78.2598 233.16 78.354 233.221ZM135.337 273.575C135.431 273.636 135.57 273.672 135.708 273.707C136.05 273.684 136.312 273.419 136.341 273.056C136.35 272.244 136.359 271.432 136.342 270.576C136.327 270.239 136.109 269.961 135.742 269.94C135.4 269.963 135.138 270.229 135.084 270.548C135.076 271.361 135.047 272.242 135.083 273.028C135.049 273.279 135.148 273.452 135.337 273.575ZM152.533 285.848C152.627 285.909 152.696 285.927 152.766 285.945C153.618 286.09 154.401 286.217 155.253 286.363C155.575 286.408 155.931 286.204 155.96 285.841C156.014 285.522 155.816 285.175 155.449 285.154C154.622 285.053 153.814 284.882 153.006 284.711C152.684 284.665 152.328 284.87 152.274 285.189C152.265 285.483 152.344 285.725 152.533 285.848ZM75.3271 226.482C75.5155 226.605 75.7236 226.658 75.9017 226.556C76.2383 226.421 76.3814 226.05 76.2769 225.764C75.9687 225.019 75.705 224.247 75.4412 223.476C75.3119 223.147 74.9848 222.989 74.6482 223.124C74.3116 223.26 74.1437 223.587 74.273 223.916C74.5367 224.687 74.8253 225.502 75.1335 226.247C75.1832 226.334 75.2329 226.421 75.3271 226.482ZM159.964 286.946C160.058 287.007 160.152 287.068 160.266 287.06C161.094 287.162 161.965 287.239 162.768 287.297C163.134 287.317 163.421 287.095 163.45 286.732C163.48 286.37 163.217 286.117 162.895 286.071C162.092 286.013 161.265 285.911 160.393 285.835C160.071 285.789 159.74 286.037 159.71 286.399C159.696 286.581 159.82 286.798 159.964 286.946ZM135.568 266.12C135.662 266.181 135.756 266.242 135.87 266.235C136.237 266.255 136.499 265.989 136.553 265.67C136.606 264.832 136.684 264.038 136.806 263.218C136.86 262.899 136.617 262.577 136.251 262.557C135.884 262.537 135.597 262.759 135.568 263.121C135.445 263.941 135.392 264.779 135.339 265.617C135.324 265.798 135.449 266.015 135.568 266.12ZM167.459 287.431C167.553 287.492 167.691 287.528 167.805 287.52C168.652 287.553 169.499 287.586 170.322 287.575C170.688 287.595 170.95 287.33 170.979 286.967C170.964 286.63 170.701 286.377 170.379 286.331C169.557 286.342 168.71 286.309 167.907 286.251C167.541 286.23 167.279 286.496 167.25 286.859C167.171 287.135 167.295 287.352 167.459 287.431ZM72.993 219.404C73.1121 219.508 73.3202 219.562 73.5232 219.503C73.8846 219.411 74.0773 219.127 73.9926 218.772L73.9626 218.617C73.7931 217.907 73.5987 217.153 73.4044 216.4C73.3445 216.089 72.9925 215.887 72.6756 215.953C72.3142 216.045 72.1463 216.372 72.2062 216.684C72.4006 217.437 72.5949 218.191 72.7893 218.944C72.7995 219.169 72.874 219.299 72.993 219.404ZM174.977 287.441C175.071 287.502 175.235 287.581 175.349 287.573C176.216 287.537 177.013 287.483 177.88 287.447C178.221 287.424 178.483 287.158 178.488 286.752C178.472 286.415 178.165 286.188 177.823 286.211C176.981 286.291 176.159 286.301 175.362 286.355C175.02 286.378 174.758 286.644 174.729 287.007C174.734 287.119 174.833 287.293 174.977 287.441ZM71.4315 212.228C71.5506 212.332 71.7339 212.343 71.9171 212.353C72.234 212.286 72.4713 211.977 72.4559 211.64C72.3506 210.836 72.2454 210.031 72.1401 209.227C72.1247 208.889 71.7924 208.619 71.431 208.711C71.0893 208.734 70.852 209.043 70.8922 209.424C70.9975 210.228 71.1276 211.076 71.2329 211.88C71.1935 212.018 71.3125 212.123 71.4315 212.228ZM136.557 258.749C136.651 258.81 136.72 258.828 136.814 258.889C137.136 258.935 137.468 258.687 137.522 258.368C137.644 257.548 137.836 256.746 137.984 255.97C138.038 255.65 137.839 255.303 137.517 255.257C137.195 255.211 136.839 255.416 136.785 255.735C136.618 256.581 136.47 257.357 136.303 258.202C136.244 258.409 136.368 258.626 136.557 258.749ZM182.465 286.776C182.584 286.881 182.723 286.917 182.881 286.884C183.723 286.804 184.54 286.681 185.402 286.533C185.719 286.466 185.956 286.157 185.941 285.82C185.881 285.508 185.573 285.281 185.231 285.304C184.414 285.427 183.597 285.55 182.755 285.63C182.414 285.653 182.176 285.962 182.192 286.299C182.271 286.542 182.346 286.672 182.465 286.776ZM70.7068 204.86C70.8258 204.965 70.9645 205 71.123 204.967C71.4647 204.944 71.7268 204.678 71.756 204.316C71.6952 203.486 71.7039 202.673 71.7125 201.861C71.6971 201.524 71.4342 201.271 71.0676 201.251C70.7259 201.274 70.4638 201.54 70.4347 201.903C70.4509 202.758 70.4423 203.57 70.503 204.4C70.4439 204.607 70.5432 204.781 70.7068 204.86ZM138.19 251.47C138.259 251.487 138.309 251.574 138.423 251.567C138.769 251.656 139.126 251.451 139.18 251.132L139.318 250.649C139.495 250.029 139.717 249.382 139.894 248.762C139.993 248.417 139.819 248.113 139.472 248.024C139.125 247.935 138.813 248.114 138.715 248.458C138.493 249.105 138.316 249.725 138.119 250.415L137.981 250.898C137.897 251.061 137.976 251.304 138.19 251.47ZM189.902 285.507C190.021 285.612 190.23 285.665 190.388 285.632C191.225 285.44 192.017 285.274 192.854 285.082C193.215 284.99 193.383 284.663 193.323 284.351C193.263 284.04 192.911 283.838 192.594 283.905C191.782 284.14 190.99 284.306 190.153 284.498C189.837 284.565 189.599 284.874 189.684 285.229C189.709 285.272 189.808 285.446 189.902 285.507ZM70.7794 197.438C70.8736 197.499 70.9678 197.561 71.1262 197.527C71.4928 197.548 71.7549 197.282 71.784 196.919C71.8372 196.082 71.9152 195.287 71.9683 194.45C71.9975 194.087 71.7346 193.834 71.4126 193.788C71.046 193.768 70.7839 194.034 70.73 194.353C70.6768 195.191 70.5542 196.011 70.5011 196.848C70.4916 197.142 70.591 197.316 70.7794 197.438ZM140.561 244.343C140.586 244.387 140.655 244.405 140.724 244.422C141.027 244.537 141.408 244.376 141.531 244.075C141.862 243.308 142.148 242.568 142.479 241.801C142.602 241.5 142.492 241.102 142.146 241.012C141.843 240.898 141.462 241.059 141.339 241.36C141.008 242.126 140.677 242.893 140.372 243.702C140.243 243.891 140.348 244.177 140.561 244.343ZM197.195 283.571C197.359 283.65 197.567 283.704 197.77 283.645C198.582 283.41 199.369 283.131 200.2 282.827C200.537 282.691 200.705 282.364 200.576 282.035C200.446 281.705 200.119 281.547 199.783 281.683C198.995 281.961 198.208 282.24 197.396 282.475C197.06 282.611 196.892 282.938 196.952 283.249C197.026 283.38 197.101 283.51 197.195 283.571ZM71.6296 190.032C71.7238 190.093 71.7931 190.111 71.9319 190.146C72.2539 190.192 72.5854 189.944 72.6393 189.625C72.7619 188.805 72.9538 188.003 73.0763 187.183C73.1303 186.864 72.9317 186.517 72.6096 186.471C72.2876 186.425 71.9313 186.63 71.8774 186.949C71.7103 187.794 71.5629 188.571 71.3958 189.416C71.3615 189.666 71.4412 189.909 71.6296 190.032ZM204.293 280.882C204.482 281.004 204.69 281.058 204.913 280.93C205.675 280.608 206.457 280.217 207.194 279.851C207.506 279.672 207.649 279.302 207.5 279.042C207.371 278.712 206.955 278.605 206.687 278.758C205.95 279.124 205.188 279.446 204.45 279.812C204.114 279.947 203.971 280.317 204.1 280.647C204.15 280.734 204.199 280.82 204.293 280.882ZM143.675 237.482C143.7 237.526 143.745 237.5 143.77 237.544C144.097 237.702 144.433 237.566 144.601 237.239C145.001 236.491 145.357 235.768 145.782 235.063C145.95 234.736 145.82 234.407 145.538 234.223C145.21 234.065 144.849 234.157 144.681 234.484C144.281 235.232 143.881 235.981 143.481 236.729C143.358 237.03 143.462 237.316 143.675 237.482ZM73.2626 182.752C73.3319 182.77 73.3816 182.857 73.4955 182.849C73.8424 182.939 74.1987 182.734 74.2526 182.415C74.4445 181.613 74.7058 180.829 74.9671 180.045C75.0656 179.7 74.8918 179.396 74.5895 179.281C74.2426 179.192 73.9309 179.371 73.8075 179.672C73.5463 180.456 73.3098 181.284 73.0734 182.111C72.9697 182.344 73.0493 182.586 73.2626 182.752ZM211.014 277.429C211.203 277.551 211.455 277.579 211.678 277.452C212.435 277.017 213.123 276.565 213.88 276.13C214.192 275.952 214.265 275.563 214.092 275.259C213.873 274.981 213.526 274.892 213.215 275.071C212.527 275.523 211.814 275.932 211.057 276.366C210.745 276.545 210.672 276.934 210.821 277.194C210.895 277.324 210.92 277.368 211.014 277.429ZM147.469 230.981C147.494 231.025 147.494 231.025 147.469 230.981C147.777 231.208 148.183 231.091 148.375 230.807C148.8 230.102 149.294 229.415 149.789 228.728C149.981 228.444 149.941 228.064 149.658 227.88C149.376 227.696 148.99 227.745 148.797 228.028C148.303 228.716 147.833 229.446 147.384 230.108C147.171 230.46 147.256 230.815 147.469 230.981ZM75.7032 175.644C75.728 175.687 75.7974 175.705 75.8667 175.723C76.1691 175.838 76.5502 175.677 76.6735 175.375C77.0042 174.609 77.3348 173.843 77.6655 173.077C77.7888 172.775 77.6792 172.377 77.3769 172.262C77.0746 172.147 76.6687 172.265 76.5453 172.566C76.2147 173.332 75.884 174.099 75.5534 174.865C75.3855 175.192 75.4899 175.478 75.7032 175.644ZM217.288 273.195C217.501 273.361 217.798 273.363 218.041 273.166C218.704 272.671 219.386 272.106 220.024 271.567C220.311 271.345 220.316 270.939 220.122 270.704C219.904 270.425 219.493 270.431 219.25 270.627C218.612 271.166 217.949 271.662 217.311 272.201C217.024 272.424 216.995 272.786 217.169 273.09C217.194 273.133 217.263 273.151 217.288 273.195ZM151.922 224.909C152.205 225.093 152.591 225.044 152.784 224.761C153.303 224.117 153.822 223.473 154.41 222.847C154.628 222.607 154.632 222.201 154.325 221.974C154.062 221.721 153.676 221.77 153.438 222.079C152.875 222.748 152.356 223.392 151.837 224.036C151.619 224.276 151.659 224.656 151.922 224.909ZM78.912 168.844C78.9368 168.888 78.9813 168.862 79.0062 168.905C79.3333 169.064 79.6947 168.972 79.8626 168.645C80.2626 167.896 80.6875 167.191 81.1123 166.486C81.3051 166.203 81.1955 165.804 80.9129 165.62C80.6303 165.437 80.2243 165.554 80.0316 165.838C79.6067 166.543 79.1622 167.317 78.7621 168.065C78.5694 168.349 78.6739 168.635 78.912 168.844ZM223.026 268.23C223.239 268.396 223.625 268.348 223.823 268.176C224.436 267.594 225.025 266.968 225.613 266.342C225.831 266.102 225.835 265.696 225.597 265.487C225.359 265.277 224.948 265.282 224.73 265.523C224.142 266.149 223.573 266.705 222.985 267.331C222.722 267.597 222.763 267.978 222.956 268.213C223.001 268.187 223.026 268.23 223.026 268.23ZM156.965 219.248C157.179 219.414 157.565 219.365 157.807 219.168C158.421 218.586 158.964 217.985 159.578 217.403C159.84 217.137 159.869 216.774 159.606 216.522C159.343 216.269 158.977 216.249 158.715 216.514C158.101 217.097 157.488 217.679 156.9 218.305C156.637 218.571 156.678 218.951 156.916 219.161C156.941 219.204 156.941 219.204 156.965 219.248ZM82.9386 162.44C83.2212 162.624 83.6075 162.575 83.8002 162.292C83.9929 162.008 84.1856 161.725 84.4032 161.484C84.7047 161.081 85.0062 160.677 85.3325 160.317C85.5252 160.033 85.485 159.653 85.247 159.443C84.9643 159.26 84.5781 159.308 84.3854 159.592C84.0839 159.996 83.7824 160.399 83.4809 160.803C83.2881 161.086 83.0954 161.37 82.8779 161.61C82.6158 161.876 82.656 162.256 82.9386 162.44ZM228.094 262.612C228.376 262.796 228.762 262.748 228.955 262.464L229.43 261.846C229.795 261.348 230.117 260.875 230.482 260.377C230.675 260.093 230.59 259.738 230.352 259.529C230.07 259.345 229.683 259.394 229.491 259.677C229.169 260.15 228.848 260.623 228.458 261.077L228.028 261.67C227.746 262.005 227.786 262.385 228.094 262.612C228.069 262.569 228.069 262.569 228.094 262.612ZM162.559 214.135C162.772 214.301 163.114 214.278 163.312 214.107C163.95 213.568 164.613 213.072 165.276 212.576C165.563 212.354 165.592 211.991 165.418 211.687C165.2 211.409 164.833 211.389 164.522 211.568C163.859 212.064 163.176 212.628 162.538 213.167C162.251 213.39 162.222 213.752 162.44 214.031C162.465 214.074 162.49 214.117 162.559 214.135ZM91.1946 162.085C91.7847 162.496 92.3747 162.907 92.9648 163.317C93.2474 163.501 93.6533 163.384 93.8461 163.1C94.0388 162.817 93.9986 162.436 93.6466 162.234C93.0814 161.867 92.4913 161.456 91.9013 161.045L91.6187 160.861C91.3361 160.677 90.9498 160.726 90.7571 161.01C90.5644 161.293 90.6046 161.674 90.8427 161.883L91.1946 162.085ZM87.0686 158.802C87.3512 158.986 87.693 158.962 87.9105 158.722C88.1281 158.482 88.1324 158.076 87.8695 157.823C87.2743 157.3 86.6543 156.733 86.0343 156.167C85.7962 155.957 85.3851 155.962 85.1676 156.203C84.9055 156.468 84.9457 156.849 85.1838 157.058C85.8038 157.625 86.4238 158.192 87.019 158.715C87.0438 158.758 87.0686 158.802 87.0686 158.802ZM97.3221 165.66C97.347 165.704 97.3915 165.678 97.4163 165.722C98.2093 166.074 98.9775 166.383 99.7903 166.666C100.093 166.781 100.474 166.619 100.572 166.275C100.696 165.973 100.541 165.6 100.195 165.511C99.4512 165.246 98.6831 164.937 97.9149 164.628C97.5877 164.47 97.2066 164.631 97.0832 164.933C96.9796 165.165 97.084 165.451 97.3221 165.66ZM81.7609 153.66C81.9742 153.826 82.3159 153.803 82.5583 153.606C82.8204 153.341 82.8495 152.978 82.5866 152.725L80.9047 150.923C80.7112 150.688 80.2753 150.65 80.0132 150.915C79.7262 151.138 79.7219 151.544 79.9848 151.796L81.6667 153.599C81.7112 153.573 81.7361 153.617 81.7609 153.66ZM87.6992 156.595C87.9818 156.779 88.3235 156.756 88.541 156.515C89.1295 155.89 89.6982 155.333 90.2866 154.707C90.5487 154.441 90.5333 154.104 90.315 153.826C90.0521 153.573 89.6855 153.553 89.4234 153.818C88.8101 154.401 88.2217 155.027 87.6333 155.653C87.3712 155.918 87.4114 156.299 87.6495 156.508C87.6992 156.595 87.6992 156.595 87.6992 156.595ZM76.7598 148.227C76.9731 148.393 77.3148 148.37 77.5572 148.173C77.8441 147.951 77.8484 147.545 77.63 147.267C77.0991 146.649 76.5236 146.057 75.9927 145.439C75.7743 145.16 75.3632 145.166 75.1209 145.362C74.8339 145.585 74.8296 145.991 75.0231 146.226C75.5541 146.844 76.085 147.461 76.6605 148.054C76.7101 148.14 76.735 148.184 76.7598 148.227ZM104.472 167.611C104.567 167.673 104.661 167.734 104.775 167.726C105.646 167.803 106.493 167.835 107.385 167.843C107.727 167.82 107.989 167.554 108.018 167.191C108.003 166.854 107.74 166.602 107.373 166.581C106.551 166.592 105.773 166.577 104.946 166.475C104.624 166.429 104.293 166.677 104.263 167.039C104.229 167.29 104.328 167.463 104.472 167.611ZM71.9317 142.58C72.145 142.746 72.4867 142.723 72.6845 142.551C72.9715 142.329 72.9758 141.923 72.7822 141.688C72.2513 141.07 71.7204 140.452 71.234 139.809C71.0156 139.531 70.6491 139.51 70.3622 139.733C70.0752 139.955 70.0461 140.318 70.2644 140.596C70.7954 141.214 71.2818 141.857 71.8375 142.519C71.8624 142.562 71.8872 142.605 71.9317 142.58ZM232.17 256.295C232.195 256.339 232.239 256.313 232.264 256.356C232.591 256.515 232.953 256.423 233.121 256.096C233.521 255.347 233.921 254.599 234.321 253.85C234.489 253.523 234.334 253.15 234.032 253.036C233.705 252.877 233.324 253.038 233.2 253.34C232.845 254.063 232.445 254.811 232.045 255.56C231.872 255.774 231.957 256.129 232.17 256.295ZM168.684 209.641C168.897 209.807 169.194 209.809 169.392 209.638C170.08 209.185 170.768 208.733 171.525 208.299C171.837 208.12 171.91 207.732 171.737 207.428C171.563 207.124 171.171 207.06 170.86 207.239C170.102 207.674 169.415 208.126 168.682 208.604C168.371 208.783 168.297 209.171 168.471 209.475C168.565 209.536 168.615 209.623 168.684 209.641ZM67.2621 136.899C67.4753 137.065 67.7725 137.067 68.0149 136.871C68.3018 136.648 68.331 136.286 68.1126 136.007C67.6262 135.364 67.0953 134.746 66.584 134.059C66.3657 133.781 65.9991 133.761 65.6874 133.94C65.4005 134.162 65.3713 134.525 65.5451 134.828C66.0315 135.472 66.5873 136.133 67.0737 136.777C67.1679 136.838 67.2373 136.856 67.2621 136.899ZM111.905 166.748C112.094 166.871 112.302 166.924 112.48 166.822C113.287 166.474 114.069 166.083 114.826 165.649C115.138 165.47 115.211 165.082 115.038 164.778C114.864 164.474 114.472 164.41 114.161 164.589C113.448 164.998 112.711 165.364 111.993 165.66C111.656 165.796 111.513 166.166 111.618 166.452C111.761 166.6 111.811 166.687 111.905 166.748ZM62.7655 131.004C62.9787 131.17 63.2759 131.172 63.5183 130.975C63.8052 130.753 63.8789 130.365 63.6605 130.087C63.1741 129.443 62.6629 128.756 62.221 128.087C62.0027 127.809 61.6113 127.745 61.3244 127.968C61.0374 128.19 60.9638 128.578 61.1821 128.856C61.6685 129.5 62.1797 130.187 62.6661 130.83C62.6713 130.942 62.6961 130.986 62.7655 131.004ZM93.2681 151.439C93.4814 151.605 93.8231 151.582 94.021 151.411C94.659 150.872 95.322 150.376 95.9849 149.88C96.2718 149.658 96.3455 149.27 96.1271 148.991C95.9088 148.713 95.5174 148.649 95.2304 148.872C94.523 149.393 93.8601 149.889 93.222 150.428C92.9351 150.65 92.9059 151.013 93.1243 151.291C93.1739 151.378 93.1988 151.421 93.2681 151.439ZM58.4025 125.032C58.6157 125.198 58.9129 125.2 59.1108 125.029C59.3977 124.807 59.4714 124.418 59.2778 124.184C58.836 123.515 58.3247 122.828 57.8829 122.159C57.709 121.855 57.3177 121.791 57.0307 122.014C56.7438 122.236 56.6453 122.581 56.8637 122.859C57.3055 123.528 57.8167 124.215 58.2586 124.884C58.3083 124.97 58.3777 124.988 58.4025 125.032ZM235.354 249.452C235.379 249.495 235.448 249.513 235.517 249.531C235.82 249.646 236.201 249.485 236.299 249.14C236.605 248.33 236.866 247.546 237.128 246.762C237.226 246.417 237.052 246.113 236.75 245.999C236.403 245.909 236.092 246.088 235.993 246.433C235.732 247.217 235.47 248.001 235.184 248.742C235.036 249 235.096 249.312 235.354 249.452ZM175.231 205.884C175.419 206.006 175.672 206.034 175.895 205.907C176.632 205.541 177.369 205.176 178.176 204.828C178.513 204.693 178.656 204.322 178.527 203.993C178.397 203.663 178.026 203.531 177.714 203.71C176.952 204.032 176.17 204.423 175.388 204.814C175.076 204.993 174.933 205.363 175.107 205.667C175.087 205.736 175.137 205.823 175.231 205.884ZM54.2621 118.932C54.4754 119.098 54.7726 119.1 54.9704 118.929C55.2822 118.75 55.3559 118.362 55.182 118.058L53.8316 116.008C53.6578 115.704 53.2664 115.64 52.9547 115.819C52.6429 115.998 52.5692 116.386 52.743 116.69L54.0935 118.74C54.1431 118.827 54.2373 118.889 54.2621 118.932ZM118.06 162.409C118.343 162.593 118.684 162.57 118.902 162.33C119.337 161.85 119.747 161.326 120.158 160.802C120.286 160.613 120.439 160.467 120.523 160.304C120.716 160.02 120.676 159.64 120.393 159.456C120.111 159.272 119.724 159.321 119.532 159.605C119.448 159.768 119.294 159.914 119.166 160.103C118.8 160.601 118.41 161.056 118.019 161.51C117.801 161.75 117.797 162.157 118.06 162.409C118.016 162.435 118.016 162.435 118.06 162.409ZM50.3 112.73C50.4884 112.852 50.741 112.88 51.0082 112.727C51.32 112.548 51.3937 112.16 51.2199 111.856C50.778 111.187 50.3558 110.449 49.9585 109.755C49.7847 109.451 49.3933 109.387 49.0816 109.566C48.7698 109.745 48.6961 110.133 48.8699 110.437C49.2673 111.132 49.7339 111.844 50.1313 112.538C50.1809 112.625 50.2503 112.643 50.3 112.73ZM99.4922 147.118C99.6806 147.241 99.9333 147.269 100.111 147.166L100.2 147.115C100.869 146.732 101.581 146.323 102.274 145.983C102.586 145.804 102.729 145.434 102.555 145.13C102.381 144.826 102.009 144.694 101.698 144.872C100.96 145.238 100.203 145.672 99.4906 146.081C99.1788 146.26 99.0606 146.674 99.2096 146.934C99.3732 147.014 99.4674 147.075 99.4922 147.118ZM46.4911 106.382C46.6795 106.505 46.9322 106.533 47.1548 106.405C47.4666 106.226 47.5403 105.838 47.3913 105.578C46.994 104.883 46.5718 104.145 46.1745 103.451C46.0007 103.147 45.6538 103.057 45.3421 103.236C45.0303 103.415 44.9318 103.76 45.1056 104.064C45.5029 104.758 45.9251 105.496 46.3224 106.191C46.3721 106.278 46.4414 106.296 46.4911 106.382ZM182.225 202.909C182.413 203.031 182.596 203.041 182.799 202.982C183.587 202.704 184.374 202.425 185.186 202.19C185.547 202.098 185.69 201.727 185.63 201.416C185.545 201.061 185.174 200.928 184.857 200.995C184.045 201.23 183.258 201.509 182.426 201.813C182.09 201.948 181.922 202.275 182.051 202.605C182.012 202.743 182.131 202.847 182.225 202.909ZM237.403 242.28C237.497 242.341 237.567 242.359 237.636 242.377C237.958 242.423 238.314 242.218 238.368 241.899C238.535 241.054 238.683 240.277 238.825 239.388C238.879 239.069 238.636 238.747 238.314 238.702C237.992 238.656 237.66 238.904 237.606 239.223C237.484 240.043 237.336 240.819 237.169 241.664C237.135 241.915 237.215 242.157 237.403 242.28ZM42.9049 99.9069C43.0933 100.029 43.346 100.057 43.5687 99.9297C43.8804 99.7508 43.9789 99.406 43.8497 99.0766C43.4523 98.382 43.0747 97.6186 42.6774 96.924C42.5035 96.6202 42.1567 96.5309 41.8201 96.6664C41.5084 96.8453 41.3653 97.2157 41.5391 97.5195C41.8919 98.2396 42.3141 98.9775 42.7114 99.6721C42.7859 99.8023 42.8356 99.8891 42.9049 99.9069ZM121.834 155.977C121.903 155.995 121.928 156.038 122.022 156.1C122.369 156.189 122.726 155.984 122.78 155.665C123.061 154.812 123.228 153.967 123.325 153.103C123.355 152.741 123.136 152.462 122.77 152.442C122.403 152.422 122.116 152.644 122.087 153.007C121.984 153.758 121.837 154.534 121.62 155.293C121.541 155.569 121.646 155.855 121.834 155.977ZM106.367 144.038C106.486 144.143 106.694 144.196 106.897 144.138C107.709 143.902 108.546 143.71 109.294 143.57C109.61 143.503 109.848 143.194 109.832 142.857C109.772 142.545 109.465 142.318 109.123 142.341C108.306 142.464 107.469 142.656 106.613 142.917C106.252 143.009 106.084 143.336 106.168 143.691C106.198 143.847 106.273 143.977 106.367 144.038ZM189.512 200.86C189.631 200.965 189.84 201.018 189.998 200.985C190.201 200.926 190.359 200.893 190.587 200.878C191.221 200.745 191.81 200.637 192.469 200.548C192.786 200.481 193.023 200.172 193.008 199.835C192.948 199.523 192.64 199.296 192.298 199.319C191.665 199.452 191.006 199.542 190.417 199.649C190.214 199.708 189.986 199.724 189.783 199.782C189.422 199.874 189.229 200.158 189.314 200.513C189.274 200.651 189.349 200.781 189.512 200.86ZM39.4772 93.3983C39.6656 93.5208 39.9182 93.5488 40.1409 93.421C40.4527 93.2421 40.5957 92.8717 40.4219 92.5679C40.0691 91.8478 39.6915 91.0844 39.3387 90.3643C39.1649 90.0604 38.7932 89.9278 38.4814 90.1066C38.1697 90.2855 38.0266 90.6559 38.2005 90.9598C38.5533 91.6798 38.9309 92.4433 39.2837 93.1634C39.3333 93.2502 39.383 93.337 39.4772 93.3983ZM238.323 234.891C238.417 234.952 238.556 234.988 238.694 235.024C239.061 235.044 239.323 234.778 239.352 234.416C239.405 233.578 239.389 232.722 239.353 231.936C239.338 231.599 239.075 231.346 238.708 231.326C238.367 231.349 238.105 231.614 238.075 231.977C238.111 232.764 238.103 233.576 238.05 234.414C238.035 234.595 238.134 234.769 238.323 234.891ZM113.83 143.331C113.924 143.392 113.994 143.41 114.132 143.445C114.96 143.547 115.723 143.744 116.397 143.991C116.699 144.106 117.08 143.945 117.204 143.643C117.327 143.342 117.173 142.969 116.87 142.854C116.058 142.571 115.225 142.357 114.329 142.237C114.007 142.191 113.675 142.439 113.621 142.759C113.562 142.965 113.642 143.208 113.83 143.331ZM121.639 148.709C121.828 148.831 122.08 148.859 122.259 148.757C122.595 148.622 122.738 148.251 122.564 147.947C122.231 147.158 121.74 146.403 121.14 145.767C120.921 145.489 120.51 145.494 120.268 145.691C119.981 145.913 119.976 146.319 120.17 146.554C120.676 147.128 121.093 147.754 121.377 148.456C121.496 148.561 121.545 148.648 121.639 148.709ZM36.2473 86.7184C36.4357 86.8409 36.6884 86.869 36.8665 86.7667C37.2031 86.6312 37.3213 86.2174 37.1723 85.957C36.8195 85.2369 36.4865 84.4479 36.1337 83.7278C36.0044 83.3984 35.6327 83.2658 35.3209 83.4447C34.9844 83.5801 34.8413 83.9505 35.0151 84.2544C35.3679 84.9744 35.701 85.7635 36.0538 86.4835C36.0589 86.5959 36.1779 86.7006 36.2473 86.7184ZM196.935 199.772C197.054 199.877 197.193 199.913 197.351 199.879C198.193 199.8 199.015 199.789 199.838 199.779C200.179 199.756 200.441 199.49 200.471 199.127C200.455 198.79 200.192 198.537 199.826 198.517C199.004 198.528 198.137 198.564 197.295 198.643C196.953 198.666 196.647 198.958 196.687 199.338C196.717 199.494 196.816 199.667 196.935 199.772ZM237.87 227.482C237.989 227.587 238.173 227.597 238.356 227.607C238.673 227.541 238.91 227.232 238.895 226.895C238.764 226.047 238.59 225.224 238.415 224.402C238.33 224.047 238.003 223.889 237.686 223.955C237.325 224.048 237.157 224.375 237.217 224.686C237.367 225.465 237.541 226.287 237.691 227.066C237.632 227.273 237.751 227.378 237.87 227.482ZM33.1759 80.0053C33.3643 80.1278 33.5724 80.1814 33.7951 80.0536C34.1317 79.9181 34.2747 79.5478 34.1454 79.2184C33.8372 78.4727 33.5041 77.6837 33.1513 76.9636C33.022 76.6342 32.6503 76.5015 32.3137 76.637C31.9771 76.7725 31.8341 77.1429 31.9634 77.4723C32.2716 78.2179 32.6047 79.0069 32.9575 79.727C33.032 79.8572 33.0817 79.9441 33.1759 80.0053ZM204.479 199.826C204.573 199.887 204.667 199.948 204.781 199.94C205.583 199.999 206.411 200.101 207.238 200.203C207.56 200.248 207.891 200 207.945 199.681C207.999 199.362 207.756 199.04 207.434 198.994C206.607 198.893 205.78 198.791 204.908 198.714C204.541 198.694 204.254 198.916 204.225 199.279C204.211 199.46 204.29 199.703 204.479 199.826ZM235.922 220.355C236.111 220.478 236.319 220.531 236.542 220.403C236.878 220.268 237.021 219.898 236.892 219.568C236.559 218.779 236.251 218.033 235.873 217.27C235.744 216.941 235.328 216.833 235.016 217.012C234.704 217.191 234.561 217.562 234.735 217.865C235.088 218.586 235.44 219.306 235.704 220.077C235.734 220.233 235.828 220.294 235.922 220.355ZM30.352 73.2079C30.5403 73.3304 30.7485 73.3839 30.9711 73.2562C31.3077 73.1207 31.4508 72.7503 31.3215 72.4209C31.0132 71.6752 30.705 70.9296 30.4164 70.115C30.2872 69.7856 29.9155 69.6529 29.6234 69.7629C29.2868 69.8984 29.1438 70.2687 29.2482 70.5547C29.5565 71.3004 29.845 72.115 30.1533 72.8606C30.1832 73.0164 30.2577 73.1466 30.352 73.2079ZM211.865 200.949C211.935 200.967 212.029 201.028 212.098 201.046C212.906 201.217 213.694 201.457 214.482 201.696C214.828 201.786 215.14 201.607 215.264 201.305C215.362 200.961 215.188 200.657 214.886 200.542C214.098 200.302 213.266 200.088 212.433 199.874C212.086 199.784 211.73 199.989 211.676 200.308C211.572 200.541 211.677 200.827 211.865 200.949ZM232.361 213.923C232.574 214.089 232.872 214.091 233.069 213.92C233.356 213.698 233.43 213.31 233.236 213.075C232.968 212.71 232.7 212.345 232.432 211.98C232.189 211.658 231.971 211.38 231.683 211.083C231.465 210.805 231.054 210.81 230.811 211.007C230.524 211.229 230.52 211.635 230.714 211.87C230.932 212.149 231.22 212.445 231.438 212.723C231.681 213.045 231.949 213.41 232.217 213.775C232.267 213.862 232.336 213.88 232.361 213.923ZM218.967 203.332C218.991 203.375 219.036 203.35 219.061 203.393C219.784 203.727 220.533 204.105 221.257 204.439C221.584 204.598 221.945 204.506 222.113 204.179C222.281 203.852 222.152 203.522 221.869 203.338C221.121 202.961 220.372 202.583 219.579 202.231C219.252 202.073 218.871 202.234 218.747 202.535C218.624 202.837 218.709 203.191 218.967 203.332ZM27.7062 66.3081C27.8946 66.4307 28.0778 66.4408 28.2808 66.382C28.6174 66.2465 28.7853 65.9195 28.656 65.5901C28.3923 64.819 28.084 64.0733 27.8203 63.3022C27.691 62.9727 27.3639 62.8145 27.0273 62.95C26.6907 63.0855 26.5228 63.4124 26.6521 63.7418C26.9158 64.513 27.1795 65.2842 27.5126 66.0733C27.5375 66.1167 27.612 66.2469 27.7062 66.3081ZM227.316 208.516C227.598 208.7 227.94 208.676 228.157 208.436C228.375 208.196 228.379 207.79 228.072 207.563C227.407 207.022 226.768 206.524 226.058 206.008C225.776 205.825 225.39 205.873 225.197 206.157C225.004 206.44 225.044 206.821 225.327 207.005C226.056 207.451 226.695 207.949 227.316 208.516ZM25.2385 59.3062C25.4269 59.4287 25.6102 59.4389 25.8132 59.3801C26.1498 59.2446 26.3177 58.9176 26.1884 58.5882C25.9247 57.817 25.661 57.0459 25.4418 56.2491C25.3125 55.9197 24.9853 55.7615 24.6239 55.8536C24.2873 55.9891 24.1194 56.316 24.2042 56.671C24.4679 57.4422 24.7316 58.2133 24.9508 59.0101C25.0698 59.1148 25.1443 59.245 25.2385 59.3062ZM22.9987 52.2889C23.1623 52.368 23.3704 52.4216 23.5734 52.3628C23.91 52.2273 24.0779 51.9003 24.0179 51.5888C23.7988 50.792 23.535 50.0208 23.3159 49.2241C23.2311 48.8691 22.8594 48.7365 22.5425 48.803C22.1811 48.895 22.0381 49.2654 22.098 49.577C22.3172 50.3737 22.5809 51.1449 22.8 51.9416C22.83 52.0974 22.8797 52.1842 22.9987 52.2889ZM20.9816 45.1438C21.1006 45.2484 21.3087 45.302 21.5117 45.2432C21.8731 45.1511 22.041 44.8242 21.9563 44.4692L21.5128 42.7633C21.428 42.4084 21.1009 42.2501 20.7395 42.3422C20.378 42.4343 20.2101 42.7613 20.2949 43.1162L20.7384 44.8221C20.7683 44.9779 20.8429 45.1081 20.9816 45.1438Z" fill="#475566"/>
</g>
</svg>
